<svg width="554" height="516" viewBox="0 0 554 516" fill="none" xmlns="http://www.w3.org/2000/svg">
<g clip-path="url(#clip0_555_2543)">
<path d="M372.989 365.686H174.681C158.012 365.686 144.451 352.125 144.451 335.456V137.148C144.451 120.479 158.012 106.918 174.681 106.918H372.989C389.657 106.918 403.218 120.479 403.218 137.148V335.456C403.218 352.125 389.657 365.686 372.989 365.686ZM174.681 111.755C160.656 111.755 149.287 123.124 149.287 137.148V335.456C149.287 349.48 160.656 360.849 174.681 360.849H313.59C360.419 360.849 398.382 322.887 398.382 276.058V137.148C398.382 123.124 387.013 111.755 372.989 111.755L174.681 111.755Z" fill="#E5E0DF"/>
<path d="M196.06 132.377C186.674 132.377 179.039 140.012 179.039 149.398V176.04C179.039 185.425 186.674 193.061 196.06 193.061H222.701C232.087 193.061 239.723 185.425 239.723 176.04V149.398C239.723 140.012 232.087 132.377 222.701 132.377H196.06Z" fill="#E5E0DF"/>
<path d="M196.06 207.377C186.674 207.377 179.039 215.012 179.039 224.398V251.04C179.039 260.425 186.674 268.061 196.06 268.061H222.701C232.087 268.061 239.723 260.425 239.723 251.04V224.398C239.723 215.012 232.087 207.377 222.701 207.377H196.06Z" fill="#E5E0DF"/>
<path d="M196.06 282.377C186.674 282.377 179.039 290.012 179.039 299.398V326.04C179.039 335.425 186.674 343.061 196.06 343.061H222.701C232.087 343.061 239.723 335.425 239.723 326.04V299.398C239.723 290.012 232.087 282.377 222.701 282.377H196.06Z" fill="#E5E0DF"/>
<path d="M213.727 67.3767C201.901 67.3767 192.28 76.9975 192.28 88.8238V122.393C192.28 134.22 201.901 143.84 213.727 143.84H247.296C259.123 143.84 268.743 134.22 268.743 122.393V88.8238C268.743 76.9975 259.123 67.3767 247.296 67.3767H213.727Z" fill="#FA4D56"/>
<path d="M324.245 161.189C312.419 161.189 302.798 170.81 302.798 182.636V216.206C302.798 228.032 312.419 237.653 324.245 237.653H357.815C369.641 237.653 379.262 228.032 379.262 216.206V182.636C379.262 170.81 369.641 161.189 357.815 161.189H324.245Z" fill="#FA4D56"/>
<path d="M276.197 499.079L269.378 499.021L266.359 472.103L276.424 472.188L276.197 499.079Z" fill="#A0616A"/>
<path d="M254.353 509.923C254.338 511.602 255.691 512.983 257.376 512.999L270.935 513.112L273.309 508.3L274.181 513.136L279.297 513.183L278.005 495.934L276.225 495.816L268.965 495.316L266.622 495.159L266.581 500.039L255.689 507.427C254.86 507.99 254.361 508.922 254.353 509.923Z" fill="#2F2E41"/>
<path d="M310.895 499.079L304.076 499.021L301.057 472.103L311.122 472.188L310.895 499.079Z" fill="#A0616A"/>
<path d="M289.051 509.923C289.036 511.602 290.389 512.983 292.074 512.999L305.633 513.112L308.007 508.3L308.878 513.136L313.995 513.183L312.703 495.934L310.923 495.816L303.662 495.316L301.32 495.159L301.279 500.039L290.387 507.427C289.558 507.99 289.059 508.922 289.051 509.923Z" fill="#2F2E41"/>
<path d="M249.437 281.449L277.08 282.322L303.269 288.142C303.269 288.142 300.65 291.342 309.379 300.072C309.379 300.072 321.019 320.441 312.871 340.228L309.379 419.375C309.379 419.375 319.56 475.169 311.781 492.926L301.501 493.569L284.104 420.019L275.625 340.81L271.551 418.793C271.551 418.793 287.136 472.32 277.295 493.569L266.16 492.926L247.109 418.793C247.109 418.793 238.961 333.244 240.125 316.949C241.289 300.654 249.437 281.449 249.437 281.449Z" fill="#4D5358"/>
<path d="M342.269 156.383C338.49 157.362 336.22 161.219 337.199 164.997C337.647 166.729 338.703 168.138 340.076 169.068L340.076 169.078L339.54 182.063L349.476 186.661L350.269 166.68L350.2 166.682C351.062 165.147 351.359 163.293 350.883 161.454C349.905 157.675 346.048 155.405 342.269 156.383Z" fill="#A0616A"/>
<path d="M286.733 202.726C284.646 200.656 283.435 197.851 283.39 194.801C283.329 190.708 285.379 186.994 288.875 184.865C292.901 182.414 297.935 182.662 301.7 185.496L332.903 208.99L338.463 175.146L350.4 178.988L347.552 223.058C347.352 226.141 345.61 228.857 342.891 230.323C340.172 231.789 336.946 231.752 334.261 230.224L289.168 204.569C288.262 204.054 287.446 203.432 286.733 202.726Z" fill="#C5E4C9"/>
<path d="M239.154 137.453C241.149 140.808 240.046 145.145 236.691 147.14C235.153 148.054 233.411 148.31 231.781 148.005L231.775 148.012L223.013 157.611L212.719 153.88L226.224 139.132L226.272 139.182C226.74 137.486 227.835 135.959 229.467 134.989C232.823 132.994 237.16 134.097 239.154 137.453Z" fill="#A0616A"/>
<path d="M242.939 209.058L192.854 195.529C189.872 194.723 187.555 192.478 186.656 189.523C185.757 186.567 186.432 183.412 188.461 181.083L217.466 147.781L228.648 153.457L208.768 181.405L247.467 186.69C252.137 187.328 255.887 190.696 257.019 195.271C258.003 199.244 256.844 203.326 253.92 206.189C251.74 208.324 248.905 209.463 245.966 209.463C244.962 209.463 243.945 209.33 242.939 209.058Z" fill="#C5E4C9"/>
<path d="M314.344 293.093L244.306 296.306C242.382 293.385 242.903 288.992 245.597 283.492C255.768 262.725 248.044 223.437 242.847 202.98C241.389 197.24 245.303 191.534 251.196 190.945L257.8 190.285L263.904 171.651H285.283L294.152 181.783L309.204 190.927C306.464 219.148 294.79 258.998 311.421 278.982C315.058 283.353 316.09 288.08 314.344 293.093Z" fill="#C5E4C9"/>
<path d="M271.874 172.081C283.374 172.081 292.697 162.758 292.697 151.257C292.697 139.757 283.374 130.434 271.874 130.434C260.373 130.434 251.05 139.757 251.05 151.257C251.05 162.758 260.373 172.081 271.874 172.081Z" fill="#A0616A"/>
<path d="M295.437 137.928C298.335 127.365 266.758 118.307 260.622 126.814C259.769 125.604 256.615 124.87 255.169 125.241C253.722 125.612 252.505 126.539 251.318 127.437C249.686 128.691 247.994 129.989 246.992 131.792C245.983 133.588 245.827 136.036 247.185 137.594C248.261 138.833 250.152 145.418 251.769 145.744C252.897 145.974 253.846 146.16 254.663 146.293C255.39 145.232 257.244 143.899 257.11 142.616C258.208 143.343 257.807 144.622 257.586 145.93C256.849 150.283 240.24 183.985 249.752 174.054C250.695 174.61 251.86 175.13 253.202 175.604C255.48 172.169 257.35 168.118 258.582 163.882L258.59 163.96C259.014 167.642 261.705 170.662 265.265 171.694C279.544 175.831 291.094 169.76 295.068 158.814C293.613 155.861 292.98 156.182 293.11 156.094C294.926 154.87 297.421 155.67 298.202 157.716C298.432 158.319 298.641 158.834 298.822 159.222C300.892 151.817 303.354 152.886 295.437 137.928Z" fill="#2F2E41"/>
<path d="M285.586 130.265L284.128 122.808C284.005 122.181 283.889 121.501 284.172 120.928C284.535 120.192 285.468 119.887 286.281 120.004C287.093 120.121 287.7 120.863 288.508 121.006C291.318 121.503 295.032 118.728 296.039 125.749C296.459 128.676 301.13 128.985 302.69 131.497C304.25 134.01 304.441 137.636 302.312 139.689C300.612 141.328 297.881 141.517 295.673 140.68C293.465 139.842 291.692 138.151 290.144 136.367C288.596 134.584 287.194 132.654 285.408 131.108" fill="#2F2E41"/>
<path d="M296.55 141.607C290.852 140.811 286.968 138.738 285.006 135.448C282.438 131.14 284.158 126.397 284.233 126.198L285.437 126.645C285.421 126.689 283.861 131.03 286.117 134.801C287.871 137.734 291.442 139.595 296.727 140.334L296.55 141.607Z" fill="#00A55B"/>
<path d="M323.289 61.0328C306.538 61.0328 292.908 47.4028 292.908 30.6517C292.908 13.9005 306.538 0.270508 323.289 0.270508C340.041 0.270508 353.671 13.9005 353.671 30.6517C353.671 47.4028 340.041 61.0328 323.289 61.0328ZM323.289 12.423C313.237 12.423 305.061 20.5998 305.061 30.6517C305.061 40.7036 313.237 48.8804 323.289 48.8804C333.341 48.8804 341.518 40.7036 341.518 30.6517C341.518 20.5998 333.341 12.423 323.289 12.423Z" fill="#4D5358"/>
<path d="M370.033 81.6795C368.543 81.6795 367.051 81.1366 365.879 80.0358L337.364 53.3129C334.914 51.0194 334.789 47.1743 337.085 44.7266C339.376 42.27 343.221 42.1484 345.672 44.4477L374.187 71.1707C376.637 73.4641 376.762 77.3092 374.465 79.7569C373.27 81.0357 371.653 81.6795 370.033 81.6795Z" fill="#4D5358"/>
<path d="M498.907 498.396C500.973 498.526 502.115 495.959 500.552 494.463L500.396 493.845C500.417 493.795 500.437 493.746 500.458 493.697C502.547 488.715 509.628 488.749 511.699 493.738C513.538 498.166 515.879 502.602 516.455 507.284C516.713 509.351 516.597 511.457 516.139 513.485C520.447 504.074 522.714 493.798 522.714 483.464C522.714 480.867 522.572 478.271 522.281 475.681C522.042 473.562 521.713 471.457 521.286 469.371C518.981 458.093 513.988 447.352 506.786 438.381C503.324 436.489 500.437 433.53 498.693 429.984C498.067 428.706 497.576 427.33 497.343 425.928C497.737 425.98 498.829 419.98 498.532 419.612C499.081 418.778 500.063 418.364 500.663 417.551C503.645 413.508 507.754 414.214 509.899 419.708C514.482 422.021 514.526 425.856 511.714 429.545C509.925 431.892 509.68 435.068 508.11 437.58C508.272 437.787 508.44 437.987 508.601 438.194C511.562 441.992 514.123 446.074 516.282 450.362C515.672 445.596 516.573 439.854 518.109 436.153C519.857 431.935 523.133 428.384 526.019 424.738C529.485 420.358 536.592 422.27 537.203 427.821C537.209 427.875 537.215 427.928 537.22 427.982C536.792 428.224 536.372 428.481 535.962 428.752C533.622 430.299 534.431 433.926 537.203 434.354L537.266 434.364C537.11 435.907 536.846 437.438 536.458 438.943C540.16 453.259 532.168 458.473 520.757 458.707C520.505 458.836 520.259 458.965 520.007 459.088C521.164 462.343 522.087 465.683 522.772 469.067C523.385 472.057 523.812 475.08 524.051 478.116C524.348 481.946 524.322 485.796 523.999 489.619L524.018 489.484C524.839 485.272 527.125 481.339 530.445 478.613C535.391 474.551 542.378 473.055 547.713 469.789C550.282 468.217 553.573 470.248 553.124 473.226L553.103 473.369C552.308 473.692 551.533 474.066 550.784 474.486C550.355 474.728 549.935 474.985 549.525 475.256C547.186 476.803 547.994 480.43 550.766 480.858L550.829 480.867C550.874 480.874 550.913 480.88 550.958 480.887C549.595 484.123 547.697 487.126 545.32 489.716C543.005 502.213 533.064 503.399 522.43 499.76H522.423C521.26 504.823 519.562 509.771 517.379 514.486H499.358C499.294 514.286 499.236 514.079 499.178 513.879C500.844 513.982 502.523 513.885 504.164 513.582C502.827 511.941 501.49 510.288 500.153 508.647C500.121 508.615 500.095 508.582 500.069 508.55C499.391 507.71 498.706 506.877 498.028 506.038L498.028 506.037C497.985 503.459 498.295 500.89 498.907 498.396Z" fill="#00A55B"/>
<path d="M0.355469 514.539C0.355469 515.199 0.885499 515.729 1.54553 515.729H551.836C552.495 515.729 553.026 515.199 553.026 514.539C553.026 513.879 552.495 513.349 551.836 513.349H1.54553C0.885499 513.349 0.355469 513.879 0.355469 514.539Z" fill="#CCCCCC"/>
</g>
<defs>
<clipPath id="clip0_555_2543">
<rect width="552.81" height="515.459" fill="white" transform="translate(0.355469 0.270508)"/>
</clipPath>
</defs>
</svg>
