<svg xmlns="http://www.w3.org/2000/svg" viewBox="0 0 500 500"><g id="freepik--background-complete--inject-477"><rect x="16.13" y="72.11" width="46.45" height="44.22" style="fill:#f5f5f5"></rect><rect x="16.13" y="121.98" width="46.45" height="44.22" style="fill:#f5f5f5"></rect><rect x="68.06" y="72.11" width="46.45" height="44.22" style="fill:#f5f5f5"></rect><rect x="68.06" y="121.98" width="46.45" height="44.22" style="fill:#f5f5f5"></rect><rect x="120.57" y="72.11" width="46.45" height="44.22" style="fill:#f5f5f5"></rect><rect x="120.57" y="121.98" width="46.45" height="44.22" style="fill:#f5f5f5"></rect><rect x="172.5" y="72.11" width="46.45" height="44.22" style="fill:#f5f5f5"></rect><rect x="172.5" y="121.98" width="46.45" height="44.22" style="fill:#f5f5f5"></rect><rect x="225.02" y="72.11" width="46.45" height="44.22" style="fill:#f5f5f5"></rect><rect x="225.02" y="121.98" width="46.45" height="44.22" style="fill:#f5f5f5"></rect><rect x="276.95" y="72.11" width="46.45" height="44.22" style="fill:#f5f5f5"></rect><rect x="276.95" y="121.98" width="46.45" height="44.22" style="fill:#f5f5f5"></rect><rect x="329.47" y="72.11" width="46.45" height="44.22" style="fill:#f5f5f5"></rect><rect x="329.47" y="121.98" width="46.45" height="44.22" style="fill:#f5f5f5"></rect><rect x="381.39" y="72.11" width="46.45" height="44.22" style="fill:#f5f5f5"></rect><rect x="381.39" y="121.98" width="46.45" height="44.22" style="fill:#f5f5f5"></rect><rect x="433.91" y="72.11" width="46.45" height="44.22" style="fill:#f5f5f5"></rect><rect x="16.13" y="22.24" width="46.45" height="44.22" style="fill:#f5f5f5"></rect><rect x="68.06" y="22.24" width="46.45" height="44.22" style="fill:#f5f5f5"></rect><rect x="120.57" y="22.24" width="46.45" height="44.22" style="fill:#f5f5f5"></rect><rect x="172.5" y="22.24" width="46.45" height="44.22" style="fill:#f5f5f5"></rect><rect x="225.02" y="22.24" width="46.45" height="44.22" style="fill:#f5f5f5"></rect><rect x="276.95" y="22.24" width="46.45" height="44.22" style="fill:#f5f5f5"></rect><rect x="329.47" y="22.24" width="46.45" height="44.22" style="fill:#f5f5f5"></rect><rect x="381.39" y="22.24" width="46.45" height="44.22" style="fill:#f5f5f5"></rect><rect x="433.91" y="22.24" width="46.45" height="44.22" style="fill:#f5f5f5"></rect><rect x="433.91" y="121.98" width="46.45" height="44.22" style="fill:#f5f5f5"></rect><path d="M305.82,445.33c-7.46-12.92-19.77-22.61-33.4-28.7s-28.54-8.8-43.41-10c-12.25-1-24.83-.91-36.5,2.94-11.39,3.76-22.21,13.6-27,24.56,21.09,6.47,43.44,5.88,64.36,12.29,9.81,3,19.46,6.54,29.46,8.82A121.09,121.09,0,0,0,298,457.68c3.83-.38,8.4-1.56,9.47-5.25C308.21,450,307.07,447.5,305.82,445.33Z" style="fill:#ebebeb"></path><path d="M37.33,325.72l165.33-77a15.46,15.46,0,0,1,10.77-.86l259.73,73.61a2.27,2.27,0,0,1,.46,4.18L285.34,427.49a2.26,2.26,0,0,1-1.92.11L109.17,358.38a2.26,2.26,0,0,1-1.31-2.85h0a2.27,2.27,0,0,0-3-2.87l-4.33,1.66a2.24,2.24,0,0,1-1.65,0L37.45,329.89A2.27,2.27,0,0,1,37.33,325.72Z" style="fill:#ebebeb"></path><path d="M382.68,214.48c-.23.69-3.35,2.24-2.08,18.05.88,10.84,1.6,21.29,1,29.38s1.29,12.5,8,13.43,23.6,2.08,36.56,3.23,22,4.4,26.14,1.39,7.64-11.1,10.41-14.57,5.79-5.79,7.18-10.65.69-43.73,0-48.59-.47-8.56-6-10.18-7.4-1.85-15.73-2.31-12.27,1.15-15,0-7.64-1.39-11.11-2.09-14.58-.46-16.89,0S382.68,214.48,382.68,214.48Z" style="fill:#f5f5f5"></path><path d="M469.92,206.15c-.41-2.83-.5-5.26-1.61-7.13-.05.06-9.2,9.82-12.51,15.16s-9.26,8.49-9,14.58,1.77,22,1.77,22,.37,11.82.37,12.56v17.82a6.93,6.93,0,0,0,3.36-1.15c4.17-3,7.64-11.1,10.41-14.57s5.79-5.79,7.18-10.65S470.61,211,469.92,206.15Z" style="fill:#ebebeb"></path><path d="M446.25,279.72c1.5-1.35-.42-7.38-.05-10.89s-.32-23.09-.69-27.34-1.86-9.82-1.65-12.21.82-4.47-.41-4.94c-2.63-1-10.51-1.88-14.39-1.51s-14.44-1.64-19.61-2-13.48-1.66-16.8-2.21c-2.72-.46-9.25-.79-11.54-.89-.67,2.43-1.16,6.77-.51,14.81.88,10.84,1.6,21.29,1,29.38s1.29,12.5,8,13.43,23.6,2.08,36.56,3.23c7,.63,12.83,1.85,17.38,2.38A11.16,11.16,0,0,0,446.25,279.72Z" style="fill:#e0e0e0"></path><path d="M396.21,236.41c-.48-1.18-1.7-1.94-2.16-3.12s-.13-2.32-.12-3.5-.49-2.57-1.64-2.79l-1.39.34c-1.74.85-2.26,3.12-2,5s1,3.79.91,5.72a29.19,29.19,0,0,0-.21,3.23,2.74,2.74,0,0,0,1.67,2.53,2.49,2.49,0,0,0,2.22-.56,7.45,7.45,0,0,0,1.48-1.86C395.89,239.93,396.89,238.08,396.21,236.41Z" style="fill:#ebebeb"></path><path d="M436.8,258.54c-.2-.75-.58-1.44-.81-2.18s-.29-1.33-.54-2a2.36,2.36,0,0,0-1.35-1.46,3.28,3.28,0,0,0-2.89.77,2.42,2.42,0,0,1-2.41.48c-.83-.23-1.57-.69-2.38-1a6.19,6.19,0,0,0-4.14,0c-.8.29-1.64.92-1.62,1.77a2.54,2.54,0,0,0,1.15,1.7c1.6,1.34,3.37,2.74,5.45,2.83a21.91,21.91,0,0,1,2.43,0c1.23.19,2.25,1,3.37,1.59s2.68.68,3.45-.31A2.58,2.58,0,0,0,436.8,258.54Z" style="fill:#ebebeb"></path><path d="M434.85,233.15l-.17-.05a3.71,3.71,0,0,0-3,.33,3.91,3.91,0,0,0-1.16,2.09,2.23,2.23,0,0,0,.09,2.12,1.33,1.33,0,0,0,1.52.23,2.07,2.07,0,0,0,1-1.24,2.43,2.43,0,0,1,.53-1.12c.41-.33,1-.23,1.48-.48a1.05,1.05,0,0,0,.54-1A1,1,0,0,0,434.85,233.15Z" style="fill:#ebebeb"></path><path d="M403.48,253a3.12,3.12,0,0,0-4.26,2.54,2.21,2.21,0,0,0,.09,2.11,1.32,1.32,0,0,0,1.52.24,2.1,2.1,0,0,0,1-1.24,2.38,2.38,0,0,1,.53-1.12c.41-.33,1-.23,1.48-.48a1.05,1.05,0,0,0,.54-1A1.1,1.1,0,0,0,403.48,253Z" style="fill:#ebebeb"></path><path d="M415.94,272c-.46-.28-1.06-.16-1.58-.29a3.62,3.62,0,0,1-1.3-.75,3.18,3.18,0,0,0-1.31-.71,1.1,1.1,0,0,0-1.25.61l.09.79a10.84,10.84,0,0,1,1.64,1.46,4.8,4.8,0,0,0,1.81,1.22,2,2,0,0,0,2-.41A1.3,1.3,0,0,0,415.94,272Z" style="fill:#ebebeb"></path><path d="M463.49,217.64a3.49,3.49,0,0,0-5.17,3c0,.88.58,1.94,1.44,1.79a1.9,1.9,0,0,0,1.11-.91c.82-1.16,2-2.35,2.81-3.51Z" style="fill:#f5f5f5"></path><path d="M465.92,223.24a1.62,1.62,0,1,1-.24.07" style="fill:#f5f5f5"></path><path d="M458.48,263.52l-2.7.8c-.47.13-1,.33-1.15.79a1.22,1.22,0,0,0,.68,1.29,7.28,7.28,0,0,1,1.34.82c.37.37.47,1.09,0,1.37a.78.78,0,0,0,1.12-.21,2.46,2.46,0,0,0,.33-1.25,2,2,0,0,1,.41-1.21c.52-.53,1.5-.41,1.93-1a1.07,1.07,0,0,0-.55-1.51,1.5,1.5,0,0,0-1.64.54" style="fill:#f5f5f5"></path><path d="M427.14,214.66A12.63,12.63,0,0,0,431.4,218a6.68,6.68,0,0,0,5.26.17c1.46-.64,2.64-1.93,4.21-2.24.79-.15,1.72-.08,2.28-.65a1.81,1.81,0,0,0-.52-2.6,5.17,5.17,0,0,0-2.91-.62l-9.6-.16a4.91,4.91,0,0,0-2.47.4,1.66,1.66,0,0,0-.79,2.14" style="fill:#ebebeb"></path><path d="M420.49,212a1.42,1.42,0,0,0-.72-1.59l-.47-.24a1.85,1.85,0,0,0-2.12,1.31,2.19,2.19,0,0,0,.52,2,1.59,1.59,0,0,0,1.37.68c.69-.11,1-.87,1.24-1.54C420.36,212.41,420.43,212.2,420.49,212Z" style="fill:#ebebeb"></path><path d="M448,199.94a7.72,7.72,0,0,0-2.65.44,1.39,1.39,0,0,0-.91.66,1.06,1.06,0,0,0,.42,1.19,3.08,3.08,0,0,0,1.27.46,4.54,4.54,0,0,0,1.72.12,1.51,1.51,0,0,0,1.23-1.07C449.15,201.17,448.53,199.83,448,199.94Z" style="fill:#ebebeb"></path><path d="M420.29,195a2.88,2.88,0,0,0-2.5-.1c-.81.3-1.54.78-2.35,1.08-2,.74-4.18.32-6.3.41a5.41,5.41,0,0,0-2.71.72,2.47,2.47,0,0,0-1.21,2.39c.24,1.49,2.11,2.15,3.6,1.89s2.84-1.08,4.32-1.35a13.43,13.43,0,0,1,4.19.18,7.74,7.74,0,0,0,2.88,0,2.88,2.88,0,0,0,2.11-1.81C422.61,197.41,421.54,195.51,420.29,195Z" style="fill:#ebebeb"></path><path d="M384,216.89s21.62,2.59,24.51,2.6,11.8.78,17,1.35,14.85-.57,17.17,0,7.14-6.05,9.84-8.72,11.84-13,13.41-13.1-18.61,21.35-19.1,24.47a15.39,15.39,0,0,0,0,5.27c.09,1.65,1.25,31.08,1.25,35.52v5.94s-.84-5.94-1.38-10.38.12-20.75-1.41-26.64a25.3,25.3,0,0,1-.77-6.59,3.68,3.68,0,0,0-3.65-3.72c-5.65,0-15.71-.09-18.5-.45C418.42,221.93,384,216.89,384,216.89Z" style="fill:#fff"></path><path d="M36.79,436.24s47.38,13.83,55.11,12.14,23.39-19,22.55-23.27-22.55-9.73-22.55-9.73Z" style="fill:#f5f5f5"></path><path d="M30.36,379.81c-.22.64-3.12,2.08-1.94,16.74.82,10.05,1.49,19.74,1,27.25s1.19,11.59,7.41,12.44,21.89,1.93,33.91,3,20.38,4.07,24.24,1.28S102,430.24,104.6,427s5.36-5.37,6.65-9.87.64-40.56,0-45.06-.43-7.94-5.58-9.44-6.87-1.72-14.59-2.15-11.37,1.07-14,0-7.08-1.29-10.3-1.93-13.51-.43-15.66,0S30.36,379.81,30.36,379.81Z" style="fill:#f5f5f5"></path><path d="M111.25,372.09c-.38-2.63-.47-4.89-1.49-6.61-.05,0-8.53,9.1-11.6,14s-8.58,7.87-8.32,13.52,1.64,20.38,1.64,20.38.34,11,.34,11.64V441.6a6.47,6.47,0,0,0,3.12-1.07c3.86-2.78,7.08-10.29,9.66-13.51s5.36-5.37,6.65-9.87S111.89,376.59,111.25,372.09Z" style="fill:#ebebeb"></path><path d="M89.3,440.31c1.39-1.25-.39-6.85,0-10.1s-.3-21.41-.65-25.35-1.72-9.11-1.52-11.33.75-4.14-.38-4.57c-2.45-.94-9.75-1.74-13.35-1.4S60,386,55.18,385.69s-12.5-1.54-15.58-2.05c-2.52-.42-8.58-.73-10.7-.83-.62,2.25-1.08,6.28-.48,13.74.82,10.05,1.49,19.74,1,27.25s1.19,11.59,7.41,12.44,21.89,1.93,33.91,3c6.48.58,11.89,1.71,16.12,2.2A10.38,10.38,0,0,0,89.3,440.31Z" style="fill:#e0e0e0"></path><path d="M42.9,400.15c-.45-1.1-1.58-1.8-2-2.9a8.58,8.58,0,0,1-.1-3.24c0-1.09-.46-2.38-1.53-2.59l-1.29.32c-1.61.79-2.09,2.89-1.89,4.68s.88,3.51.84,5.31a27.29,27.29,0,0,0-.2,3,2.55,2.55,0,0,0,1.55,2.35,2.3,2.3,0,0,0,2.06-.53,6.75,6.75,0,0,0,1.37-1.72C42.6,403.41,43.53,401.7,42.9,400.15Z" style="fill:#ebebeb"></path><path d="M80.53,420.67c-.18-.69-.53-1.33-.74-2s-.28-1.24-.51-1.83A2.14,2.14,0,0,0,78,415.47a3,3,0,0,0-2.69.71,2.23,2.23,0,0,1-2.23.44c-.77-.21-1.46-.64-2.21-.91a5.66,5.66,0,0,0-3.83,0c-.75.27-1.52.85-1.5,1.64a2.33,2.33,0,0,0,1.06,1.58c1.49,1.23,3.12,2.53,5,2.61.75,0,1.51-.12,2.25,0A11.91,11.91,0,0,1,77.07,423c1.05.51,2.49.63,3.2-.28A2.36,2.36,0,0,0,80.53,420.67Z" style="fill:#ebebeb"></path><path d="M78.73,397.12l-.16,0a3.43,3.43,0,0,0-2.8.3,3.62,3.62,0,0,0-1.07,1.94c-.2.66-.38,1.45.08,2a1.22,1.22,0,0,0,1.41.22,1.9,1.9,0,0,0,.94-1.15,2.25,2.25,0,0,1,.5-1c.37-.31,1-.21,1.37-.44a1,1,0,0,0,.5-.91A.92.92,0,0,0,78.73,397.12Z" style="fill:#ebebeb"></path><path d="M49.64,415.49a3.65,3.65,0,0,0-2.88.42,3.62,3.62,0,0,0-1.07,1.94c-.2.65-.38,1.45.08,2a1.23,1.23,0,0,0,1.41.22,2,2,0,0,0,1-1.15,2.1,2.1,0,0,1,.49-1c.38-.31,1-.21,1.37-.44a1,1,0,0,0,.51-.92A1.05,1.05,0,0,0,49.64,415.49Z" style="fill:#ebebeb"></path><path d="M61.19,433.15c-.42-.26-1-.16-1.46-.28a3.16,3.16,0,0,1-1.2-.7,3,3,0,0,0-1.22-.65,1,1,0,0,0-1.16.56l.08.74a9.31,9.31,0,0,1,1.53,1.35,4.5,4.5,0,0,0,1.67,1.13,1.85,1.85,0,0,0,1.9-.38A1.18,1.18,0,0,0,61.19,433.15Z" style="fill:#ebebeb"></path><path d="M105.29,382.74a3.24,3.24,0,0,0-4.8,2.75c0,.81.54,1.8,1.34,1.66a1.82,1.82,0,0,0,1-.85c.76-1.07,1.84-2.18,2.61-3.25Z" style="fill:#f5f5f5"></path><path d="M107.55,387.94a1.48,1.48,0,1,1-.23.06" style="fill:#f5f5f5"></path><path d="M100.64,425.29l-2.5.73c-.43.13-.92.31-1.06.74s.21.94.62,1.2a6.62,6.62,0,0,1,1.25.76c.34.34.44,1,0,1.27a.73.73,0,0,0,1-.2,2.38,2.38,0,0,0,.3-1.16,1.76,1.76,0,0,1,.38-1.12c.48-.49,1.39-.38,1.79-.94a1,1,0,0,0-.51-1.39,1.39,1.39,0,0,0-1.52.5" style="fill:#f5f5f5"></path><path d="M71.58,380a11.86,11.86,0,0,0,4,3,6.27,6.27,0,0,0,4.88.16c1.36-.59,2.45-1.79,3.9-2.08.74-.14,1.59-.07,2.12-.61a1.68,1.68,0,0,0-.48-2.41,4.9,4.9,0,0,0-2.71-.57l-8.89-.15a4.57,4.57,0,0,0-2.3.37,1.55,1.55,0,0,0-.73,2" style="fill:#ebebeb"></path><path d="M65.41,377.5a1.3,1.3,0,0,0-.67-1.47l-.43-.23a1.71,1.71,0,0,0-2,1.22,2,2,0,0,0,.47,1.83,1.48,1.48,0,0,0,1.28.63c.63-.1,1-.8,1.14-1.42C65.29,377.89,65.36,377.7,65.41,377.5Z" style="fill:#ebebeb"></path><path d="M90.89,366.33a7.37,7.37,0,0,0-2.46.4,1.34,1.34,0,0,0-.84.61,1,1,0,0,0,.38,1.11,3,3,0,0,0,1.18.43,4.3,4.3,0,0,0,1.59.11,1.42,1.42,0,0,0,1.15-1C92,367.47,91.42,366.23,90.89,366.33Z" style="fill:#ebebeb"></path><path d="M65.23,361.7a2.65,2.65,0,0,0-2.32-.09c-.75.27-1.43.72-2.18,1-1.84.68-3.88.3-5.84.38a5.09,5.09,0,0,0-2.52.66,2.35,2.35,0,0,0-1.12,2.22c.23,1.38,2,2,3.35,1.76s2.62-1,4-1.26a12.67,12.67,0,0,1,3.88.17,7.1,7.1,0,0,0,2.68,0,2.67,2.67,0,0,0,2-1.67C67.38,364,66.39,362.22,65.23,361.7Z" style="fill:#ebebeb"></path><path d="M31.57,382.05s20,2.4,22.74,2.41,10.93.72,15.76,1.25,13.77-.53,15.92,0,6.62-5.61,9.13-8.09,11-12,12.43-12.14-17.26,19.79-17.71,22.68a14.48,14.48,0,0,0,0,4.89C89.93,394.58,91,421.87,91,426v5.51s-.78-5.51-1.28-9.63.11-19.24-1.31-24.7a24.05,24.05,0,0,1-.72-6.11,3.4,3.4,0,0,0-3.38-3.45c-5.24,0-14.56-.08-17.15-.42C63.49,386.72,31.57,382.05,31.57,382.05Z" style="fill:#fff"></path><path d="M404.69,400.46A3.56,3.56,0,0,0,400,399a8.07,8.07,0,0,0-16.09-1.23l-1.35-.81A3.47,3.47,0,0,0,377.4,399c-.62,2.45-.34,5.36-.15,7.95.56,7.69-.35,16.69-3.36,23.78l.6-.14a45.09,45.09,0,0,0,28-13.45c1.29-1.31,2.57-2.89,2.5-4.72s-2.35-3.49-3.78-2.34a17,17,0,0,0,3.39-4.31A5.78,5.78,0,0,0,404.69,400.46Z" style="fill:#ebebeb"></path><path d="M410,436.47c-.42-1.41-1.8-2.27-3.11-2.92a43.93,43.93,0,0,0-32.23-2.75L374,431a116.07,116.07,0,0,0,11.71,13.9c4,3.95,9.05,7.11,14.64,7.65,2.73.26,5.68-.18,7.78-1.95,3.38-2.83,3.16-8.89-.41-11.48C409.06,439.7,410.42,437.87,410,436.47Z" style="fill:#ebebeb"></path><path d="M434,403.93c-3.39-.31-6.75,1-9.92,2.29-2.8-2.62-7.93-2-11.24.3s-5.25,5.81-7.18,9.15-4.34,6.91-7.89,8.89l-.69.59c10,6.06,24.69,8.06,36,3.46a14.61,14.61,0,0,0,5-3,5.38,5.38,0,0,0,1.66-5c-.4-1.43-1.61-2.6-1.79-4.07-.28-2.29,2-4.31,2.33-6.62C440.67,406.8,437.35,404.23,434,403.93Z" style="fill:#ebebeb"></path><path d="M342.82,451.05a.82.82,0,0,1,.14-.21l.46-.61c.4-.53,1-1.3,1.88-2.23a49.32,49.32,0,0,1,8.05-7.07,73.27,73.27,0,0,1,14-7.6c2.76-1.15,5.71-2.26,8.82-3.24s6.36-1.86,9.7-2.73c13.36-3.46,25.53-6.29,34.27-8.6,4.37-1.15,7.89-2.11,10.31-2.86,1.21-.35,2.14-.67,2.77-.87l.72-.23.25-.06s-.07.05-.23.11l-.71.28c-.62.23-1.54.59-2.74,1-2.4.81-5.92,1.82-10.28,3-8.72,2.4-20.88,5.29-34.23,8.75-3.33.86-6.58,1.75-9.68,2.71s-6,2.06-8.79,3.19a75.14,75.14,0,0,0-13.93,7.47,52.12,52.12,0,0,0-8.11,6.9c-.88.91-1.52,1.65-1.95,2.16l-.5.57Z" style="fill:#e0e0e0"></path><path d="M392.85,403.84a5.5,5.5,0,0,1-.26,1.23c-.2.78-.54,1.9-1,3.26a54.82,54.82,0,0,1-4.88,10.16,54,54,0,0,1-6.88,8.93c-1,1-1.85,1.85-2.46,2.38a6.71,6.71,0,0,1-1,.79,5.18,5.18,0,0,1,.83-.94c.57-.57,1.37-1.41,2.33-2.48a63.67,63.67,0,0,0,6.71-8.95,62.87,62.87,0,0,0,5-10c.52-1.34.92-2.43,1.17-3.19A7,7,0,0,1,392.85,403.84Z" style="fill:#e0e0e0"></path><path d="M398.67,442.56c-.06.06-1.05-.9-2.74-2.34a57.91,57.91,0,0,0-14.67-9.16c-2-.89-3.34-1.36-3.31-1.44a3.77,3.77,0,0,1,.94.23c.61.17,1.46.47,2.51.87a47.66,47.66,0,0,1,14.77,9.22c.82.77,1.46,1.41,1.88,1.87S398.7,442.54,398.67,442.56Z" style="fill:#e0e0e0"></path></g><g id="freepik--Floor--inject-477"><path d="M483.26,185.84c0,.15-104.44.26-233.25.26S16.74,186,16.74,185.84s104.42-.26,233.27-.26S483.26,185.7,483.26,185.84Z" style="fill:#263238"></path></g><g id="freepik--Tofu--inject-477"><path d="M391.54,328.62V309.43L418,319.94v21l-24.77-9.84A2.69,2.69,0,0,1,391.54,328.62Z" style="fill:#6f4439"></path><polygon points="418.01 340.97 438.72 328.8 438.93 306.79 418.01 315.97 418.01 340.97" style="fill:#6f4439"></polygon><path d="M391.54,328.62V309.43L418,319.94v21l-24.77-9.84A2.69,2.69,0,0,1,391.54,328.62Z" style="opacity:0.2"></path><polygon points="418.01 340.97 438.72 328.8 438.93 306.79 418.01 315.97 418.01 340.97" style="opacity:0.30000000000000004"></polygon><path d="M297.38,382.19V363l26.46,10.51v21l-24.76-9.84A2.69,2.69,0,0,1,297.38,382.19Z" style="fill:#6f4439"></path><polygon points="323.84 394.54 344.56 382.37 344.76 360.36 323.84 369.54 323.84 394.54" style="fill:#6f4439"></polygon><path d="M297.38,382.19V363l26.46,10.51v21l-24.76-9.84A2.69,2.69,0,0,1,297.38,382.19Z" style="opacity:0.2"></path><polygon points="323.84 394.54 344.56 382.37 344.76 360.36 323.84 369.54 323.84 394.54" style="opacity:0.30000000000000004"></polygon><path d="M53.78,324.37v-19.2l26.47,10.52v21l-24.76-9.84A2.69,2.69,0,0,1,53.78,324.37Z" style="fill:#6f4439"></path><polygon points="80.25 336.71 98.7 323.98 98.7 304.45 80.25 311.71 80.25 336.71" style="fill:#6f4439"></polygon><path d="M53.78,324.37v-19.2l26.47,10.52v21l-24.76-9.84A2.69,2.69,0,0,1,53.78,324.37Z" style="opacity:0.2"></path><polygon points="80.25 336.71 98.7 323.98 98.29 303.22 80.25 311.71 80.25 336.71" style="opacity:0.30000000000000004"></polygon><path d="M204.47,385.37v-19.2l26.46,10.51v21l-24.76-9.84A2.69,2.69,0,0,1,204.47,385.37Z" style="fill:#6f4439"></path><polygon points="230.93 397.71 249.38 384.98 249.38 365.44 230.93 372.71 230.93 397.71" style="fill:#6f4439"></polygon><path d="M204.47,385.37v-19.2l26.46,10.51v21l-24.76-9.84A2.69,2.69,0,0,1,204.47,385.37Z" style="opacity:0.2"></path><polygon points="230.93 397.71 249.38 384.98 248.97 364.21 230.93 372.71 230.93 397.71" style="opacity:0.30000000000000004"></polygon><path d="M32,276.25l170.58-61.51a2.27,2.27,0,0,1,1.58-.13L469.8,272.08c2,.56,1.08,20.7-.72,21.67L280.81,395.55a2.29,2.29,0,0,1-1.93.11L104.63,326.44a2.28,2.28,0,0,1-1.31-2.86h0a2.27,2.27,0,0,0-3-2.86L96,322.38a2.29,2.29,0,0,1-1.65,0L32.91,298C31.05,297.21,30.2,277.1,32,276.25Z" style="fill:#6f4439"></path><path d="M32.79,275.5l165.33-77a15.47,15.47,0,0,1,10.77-.86l259.73,73.61a2.27,2.27,0,0,1,.46,4.19L280.81,377.27a2.29,2.29,0,0,1-1.93.11L104.63,308.16a2.26,2.26,0,0,1-1.31-2.85h0a2.27,2.27,0,0,0-3-2.87L96,304.1a2.24,2.24,0,0,1-1.65,0L32.91,279.67A2.27,2.27,0,0,1,32.79,275.5Z" style="fill:#ae7461"></path><g style="opacity:0.30000000000000004"><path d="M259.13,211.91s-.15.09-.45.24l-1.33.64-5.15,2.42c-4.48,2.08-10.94,5.14-18.9,9-15.93,7.63-37.79,18.48-61.81,30.69s-45.76,23.34-61.56,31.24c-7.9,4-14.3,7.14-18.74,9.3l-5.12,2.48-1.34.63-.46.2s.14-.09.44-.24l1.31-.69,5.08-2.56,18.66-9.45,61.49-31.37c24-12.22,45.92-23,61.89-30.56,8-3.78,14.47-6.79,19-8.82l5.19-2.33,1.35-.59Z"></path></g><g style="opacity:0.30000000000000004"><path d="M324.14,230.34l-.45.28-1.36.77-5.24,2.93L297.76,245c-16.34,8.95-39,21.26-64,34.69s-47.86,25.42-64.45,33.92c-8.3,4.24-15,7.67-19.7,9.95l-5.39,2.64-1.41.67-.49.22s.16-.1.47-.26l1.38-.73,5.35-2.72c4.65-2.34,11.35-5.81,19.62-10.09,16.55-8.59,39.3-20.63,64.38-34.06s47.71-25.68,64.09-34.56L317,234.14l5.28-2.84c.6-.31,1.06-.55,1.38-.73Z"></path></g><g style="opacity:0.30000000000000004"><path d="M394.89,254.13s-.15.1-.46.27l-1.35.78-5.24,2.92L368.5,268.75c-16.34,9-39,21.27-64,34.69S256.61,328.87,240,337.37c-8.29,4.24-15,7.66-19.7,9.95-2.33,1.13-4.14,2-5.39,2.64l-1.41.67-.48.21.46-.26,1.38-.72,5.35-2.72c4.66-2.34,11.35-5.82,19.63-10.1,16.54-8.58,39.3-20.62,64.37-34.05s47.71-25.69,64.1-34.56l19.41-10.5,5.29-2.84,1.38-.73C394.72,254.2,394.89,254.13,394.89,254.13Z"></path></g><path d="M95.1,304.24l.93,18,4.61-1.74s1.57-.54,2.17.63l.39-14.92s.93-4.08-2.41-3.86Z" style="opacity:0.2"></path><g style="opacity:0.30000000000000004"><path d="M59,291.1a12,12,0,0,1,1.5-.82,32.37,32.37,0,0,0,3.91-2.44,30.79,30.79,0,0,0,12.88-26.19,32.33,32.33,0,0,0-.45-4.59,13,13,0,0,1-.27-1.68s.07.13.15.41.21.69.32,1.23a27.52,27.52,0,0,1,.62,4.62,30.06,30.06,0,0,1-13,26.5,27.18,27.18,0,0,1-4,2.33c-.5.24-.9.38-1.17.49A1.6,1.6,0,0,1,59,291.1Z"></path></g><g style="opacity:0.30000000000000004"><path d="M184.4,205a2.75,2.75,0,0,1-.23.27l-.68.77c-.62.67-1.51,1.67-2.65,3-2.28,2.59-5.46,6.43-9.23,11.31s-8.09,10.82-13.11,17.26a151.83,151.83,0,0,1-17.85,19.64c-7,6.27-14.68,11.31-22.44,14.05a19.79,19.79,0,0,1-5.92,1.05,11.71,11.71,0,0,1-5.53-1.26,11.06,11.06,0,0,1-3.92-3.56,15.11,15.11,0,0,1-2-4.45,18.74,18.74,0,0,1-.18-8.33,35.32,35.32,0,0,1,1.77-6c.61-1.62,1.15-2.85,1.51-3.68l.43-.94a1.44,1.44,0,0,1,.16-.31,1.89,1.89,0,0,1-.11.33l-.38,1c-.33.85-.84,2.09-1.42,3.71a36.79,36.79,0,0,0-1.67,6,18.4,18.4,0,0,0,.25,8.17,14.36,14.36,0,0,0,2,4.32,10.6,10.6,0,0,0,3.79,3.41,11.21,11.21,0,0,0,5.33,1.18,19.63,19.63,0,0,0,5.77-1c7.64-2.73,15.25-7.76,22.24-14a152.62,152.62,0,0,0,17.82-19.55c5-6.41,9.39-12.33,13.2-17.18s7-8.68,9.36-11.23c1.17-1.27,2.09-2.25,2.73-2.89l.73-.74C184.3,205.11,184.39,205,184.4,205Z"></path></g><g style="opacity:0.30000000000000004"><path d="M226.86,204.48a2.88,2.88,0,0,1-.61.23l-1.78.54-1.28.38c-.47.16-1,.36-1.5.55-1.07.41-2.31.81-3.6,1.44l-2.06.93c-.71.33-1.42.75-2.17,1.13-1.51.76-3,1.75-4.64,2.76a65.92,65.92,0,0,0-9.56,7.8,67,67,0,0,0-7.78,9.58c-1,1.62-2,3.13-2.74,4.65-.39.75-.8,1.45-1.13,2.17s-.63,1.4-.92,2.06c-.63,1.29-1,2.54-1.43,3.6-.2.54-.4,1-.55,1.5s-.26.9-.38,1.29l-.54,1.77a4.59,4.59,0,0,1-.22.62,2.48,2.48,0,0,1,.12-.64c.11-.47.26-1.07.45-1.81l.33-1.3c.14-.47.33-1,.51-1.52.39-1.08.76-2.34,1.37-3.66.28-.66.58-1.36.9-2.08s.73-1.44,1.11-2.2c.74-1.54,1.72-3.07,2.72-4.71A59.06,59.06,0,0,1,209,212c1.63-1,3.16-2,4.7-2.73.76-.38,1.47-.79,2.2-1.11l2.08-.91c1.31-.61,2.57-1,3.66-1.37.54-.19,1-.37,1.51-.51l1.31-.34,1.8-.46A3.32,3.32,0,0,1,226.86,204.48Z"></path></g><g style="opacity:0.30000000000000004"><path d="M183.94,305.46a4.05,4.05,0,0,1-.79-.23l-2.21-.77-1.6-.57c-.59-.19-1.24-.37-1.93-.58-1.38-.41-2.94-.94-4.72-1.33l-2.77-.69c-1-.24-2-.4-3-.62-2.09-.46-4.36-.74-6.74-1.09a111.82,111.82,0,0,0-15.6-.76A109.43,109.43,0,0,0,129,300.47c-2.36.48-4.61.89-6.67,1.47-1,.28-2,.5-3,.79l-2.73.84c-1.75.5-3.27,1.12-4.64,1.6-.67.25-1.31.47-1.89.7l-1.56.65-2.17.89a4.34,4.34,0,0,1-.77.28,5.63,5.63,0,0,1,.73-.37l2.13-1,1.55-.69c.57-.25,1.21-.48,1.88-.74,1.36-.51,2.88-1.16,4.63-1.68l2.73-.88c1-.3,2-.53,3-.82,2.07-.59,4.32-1,6.69-1.52a106,106,0,0,1,15.61-1.7,108.15,108.15,0,0,1,15.67.8c2.39.37,4.67.67,6.76,1.15,1.05.22,2.07.4,3,.65l2.77.72c1.78.42,3.34,1,4.72,1.41.69.23,1.34.42,1.92.63l1.59.61,2.18.86A5.36,5.36,0,0,1,183.94,305.46Z"></path></g><g style="opacity:0.30000000000000004"><path d="M248.18,268.78a.62.62,0,0,1-.23.08l-.7.18-2.69.66-1.94.47-2.34.46c-1.68.31-3.58.73-5.71,1l-3.34.51c-1.16.17-2.38.27-3.63.42-2.51.32-5.21.48-8,.69a168.27,168.27,0,0,1-18.5,0A167.22,167.22,0,0,1,182.69,271c-2.79-.56-5.45-1-7.9-1.69-1.23-.3-2.42-.56-3.55-.87l-3.25-.92c-2.08-.55-3.92-1.21-5.54-1.73l-2.26-.75-1.87-.7-2.59-1-.67-.27a.7.7,0,0,1-.22-.11.67.67,0,0,1,.24.06l.69.22,2.61.9,1.89.66,2.27.71c1.63.49,3.47,1.12,5.55,1.64l3.25.89c1.13.3,2.32.55,3.55.84,2.45.62,5.1,1.09,7.88,1.64a174.55,174.55,0,0,0,18.32,2.21,172.75,172.75,0,0,0,18.44.09c2.82-.19,5.52-.34,8-.64,1.25-.14,2.47-.23,3.63-.39l3.33-.47c2.14-.27,4-.66,5.72-1l2.34-.42,2-.42,2.71-.56.71-.13Z"></path></g><g style="opacity:0.30000000000000004"><path d="M213.35,292.77a2.53,2.53,0,0,1-.06.55c-.06.42-.14.94-.24,1.58s-.26,1.52-.48,2.48-.43,2.06-.77,3.25-.66,2.51-1.12,3.9-1,2.85-1.53,4.4a89.3,89.3,0,0,1-4.45,9.69,87,87,0,0,1-5.68,9c-1,1.31-1.91,2.57-2.85,3.68s-1.81,2.16-2.65,3.08-1.62,1.71-2.3,2.42-1.3,1.29-1.82,1.75l-1.18,1.07a2.91,2.91,0,0,1-.44.35,2.7,2.7,0,0,1,.37-.42l1.11-1.14c.49-.49,1.09-1.08,1.75-1.81s1.45-1.52,2.24-2.47,1.69-2,2.58-3.1,1.83-2.38,2.8-3.69a94.16,94.16,0,0,0,5.61-9,91.73,91.73,0,0,0,4.46-9.62c.57-1.53,1.14-3,1.56-4.36s.85-2.67,1.19-3.86.59-2.27.84-3.22.42-1.78.56-2.45.25-1.15.34-1.56A2.1,2.1,0,0,1,213.35,292.77Z"></path></g><g style="opacity:0.30000000000000004"><path d="M341.66,237.43a1.83,1.83,0,0,1-.42.1l-1.25.23-4.78.83c-4.14.74-10.16,1.75-17.49,3.46-3.66.86-7.65,1.92-11.85,3.3a95.43,95.43,0,0,0-13.08,5.27c-2.22,1.1-4.46,2.31-6.67,3.69a65.74,65.74,0,0,0-6.52,4.53,59.44,59.44,0,0,0-6.15,5.47,53.27,53.27,0,0,0-5.45,6.47,64,64,0,0,0-7.65,14.81c-1.93,5.06-3.5,10.05-5.22,14.73a108.93,108.93,0,0,1-11.93,23.61,105.94,105.94,0,0,1-11.13,13.95c-1.46,1.53-2.62,2.68-3.43,3.44l-.92.86a2.06,2.06,0,0,1-.33.28,3.4,3.4,0,0,1,.29-.32l.89-.9c.79-.78,1.92-1.95,3.35-3.5a110.31,110.31,0,0,0,22.76-37.58c1.7-4.68,3.26-9.67,5.2-14.75a64.37,64.37,0,0,1,7.7-14.93,51.89,51.89,0,0,1,5.5-6.53,60.23,60.23,0,0,1,6.2-5.51,66.18,66.18,0,0,1,6.58-4.55,74.43,74.43,0,0,1,6.72-3.7,95.31,95.31,0,0,1,13.16-5.25c4.22-1.36,8.22-2.41,11.9-3.25,7.35-1.66,13.38-2.62,17.54-3.3l4.8-.74,1.25-.17Z"></path></g><g style="opacity:0.30000000000000004"><path d="M373.46,245.29s-.07.07-.22.18l-.7.49c-.6.44-1.52,1-2.72,1.78a81.93,81.93,0,0,1-10.7,5.38c-4.67,2-10.37,3.92-16.73,6A216.79,216.79,0,0,0,322,266.42c-7,3.1-13.38,6.93-18.21,11.51a41.86,41.86,0,0,0-10,14.36,31.43,31.43,0,0,0-2.4,11.59c0,.7,0,1.33,0,1.87s.1,1,.13,1.37.06.62.08.84a.91.91,0,0,1,0,.29,1,1,0,0,1-.06-.28c0-.22-.08-.49-.13-.84s-.14-.82-.18-1.37-.06-1.17-.1-1.88a30.73,30.73,0,0,1,2.27-11.72,41.66,41.66,0,0,1,10-14.58c4.86-4.65,11.27-8.52,18.33-11.64a205.92,205.92,0,0,1,20.48-7.32c6.36-2,12.06-3.93,16.73-5.84a88.8,88.8,0,0,0,10.73-5.21c1.22-.72,2.16-1.29,2.78-1.7l.72-.44A1.15,1.15,0,0,1,373.46,245.29Z"></path></g><g style="opacity:0.30000000000000004"><path d="M328.27,351.26a4.39,4.39,0,0,1-.83,0l-2.37-.09c-2.05-.08-5-.2-8.7-.27-7.34-.13-17.51,0-28.68.88a117.8,117.8,0,0,0-15.65,2,36.81,36.81,0,0,0-11.89,4.67,25.18,25.18,0,0,0-6.43,5.74c-.62.81-1.06,1.48-1.35,1.93a4.44,4.44,0,0,1-.45.69,7.14,7.14,0,0,1,.36-.74,18.82,18.82,0,0,1,1.28-2,24.33,24.33,0,0,1,6.39-5.92,36.15,36.15,0,0,1,12-4.84,114.28,114.28,0,0,1,15.71-2.05,258.88,258.88,0,0,1,28.73-.72c3.68.11,6.65.28,8.71.42l2.36.19A4.14,4.14,0,0,1,328.27,351.26Z"></path></g><g style="opacity:0.30000000000000004"><path d="M448.87,284.81l-.53.28-1.59.8c-1.39.7-3.46,1.71-6.15,3-5.37,2.5-13.22,6-23.15,9.69a330.19,330.19,0,0,1-35.55,11c-6.8,1.7-14,3.25-21.5,4.61s-15.32,2.53-23.32,3.69c-16,2.32-31.25,4.56-44.85,7.89a164.05,164.05,0,0,0-35,12.42,109.66,109.66,0,0,0-12.35,7.15c-1.77,1.13-3.32,2.33-4.78,3.38s-2.7,2.13-3.87,3.05c-2.24,1.93-4,3.45-5.06,4.56l-1.28,1.22c-.29.28-.45.41-.45.41s.13-.16.41-.44l1.25-1.27c1.07-1.13,2.78-2.68,5-4.64,1.16-.93,2.41-2,3.85-3.09s3-2.28,4.77-3.42a108.24,108.24,0,0,1,12.34-7.24,163.18,163.18,0,0,1,35-12.56c13.63-3.36,28.9-5.62,44.9-7.93,8-1.17,15.8-2.34,23.3-3.68s14.68-2.89,21.47-4.57a339.57,339.57,0,0,0,35.54-10.91c9.94-3.67,17.8-7.1,23.2-9.54,2.7-1.21,4.78-2.19,6.18-2.86l1.61-.75C448.68,284.88,448.87,284.81,448.87,284.81Z"></path></g><g style="opacity:0.30000000000000004"><path d="M458.71,268l-.34.17-1,.48-4,1.79c-3.48,1.53-8.52,3.74-14.78,6.4-12.52,5.29-29.93,12.5-49.9,18.28a30.9,30.9,0,0,1-7.58,1.52,11.89,11.89,0,0,1-3.8-.45,9.43,9.43,0,0,1-3.31-1.83,7.34,7.34,0,0,1-2.14-3,6,6,0,0,1,0-3.66,13.74,13.74,0,0,1,4.11-5.61A135.47,135.47,0,0,1,394.8,267.4a130.75,130.75,0,0,1,14.08-7.84c1.72-.81,3.07-1.42,4-1.8l1.05-.44.37-.14a2,2,0,0,1-.34.18l-1,.49c-.91.42-2.24,1.06-3.95,1.89a141.64,141.64,0,0,0-14,8,138.1,138.1,0,0,0-18.78,14.66c-1.61,1.52-3.28,3.21-4,5.4a5.4,5.4,0,0,0,0,3.35,6.75,6.75,0,0,0,2,2.83,9.07,9.07,0,0,0,3.13,1.73,11.33,11.33,0,0,0,3.64.42,30.23,30.23,0,0,0,7.45-1.5c19.93-5.77,37.34-12.92,49.9-18.12l14.84-6.25,4-1.7,1-.42A1.59,1.59,0,0,1,458.71,268Z"></path></g><g style="opacity:0.2"><path d="M350.76,314.57c-4.05-10.87-13.56-19-24.06-23.9s-22.07-7-33.48-9.06L223.31,269l-120.83-.14c1.83,7.62,11.19,10,18.78,12,32.51,8.4,58.56,33.27,90.57,43.4,11.31,3.58,23.12,5.24,34.87,6.88l22.17,3.1c15.63,2.19,31.46,4.38,47.16,2.71a193.07,193.07,0,0,0,24-4.62c3.8-.9,7.91-2,10.22-5.14C352.89,323.66,352.3,318.69,350.76,314.57Z"></path></g><path d="M100.2,270.1A11.34,11.34,0,0,1,94.61,263a33.77,33.77,0,0,1-1-9.2Q93,226.92,92.4,200c-.14-6.09-.26-12.25,1.11-18.19,0,0,.61-5.17,12.65-10.52s12.38-2.68,17.39-6.69,9.37-6.69,17.4-11.38,25.42-6.35,30.1-9.7,13.38-8.69,18.06-9.7,11.71-2.34,16.39,0,67.57,24.42,79.28,24.42,30.44,7,35.45,8.36,15.39,4,15.73,7.7,2,71.58,1.67,79.61-.67,15-2.34,16.18-36.8,21.61-42.15,25.63-33.45,19.73-37.46,22.41-14.39,8.36-23.42,4.35-28.76-13.05-35.79-15.39-21.74-7-29.77-12-38.46-14.39-43.15-15.39S100.2,270.1,100.2,270.1Z" style="fill:#FF725E"></path><path d="M237.31,292.43c-.65-3.05.34-25.06,0-27.51s-.27-33-.27-33,.61-3.67,0-5.32-8.25-6.29-14.06-7.82a144,144,0,0,1-19.87-7c-7-3.06-13.14-2.75-17.73-4s-10.09-2.44-13.76-3.95-7.33-.33-9.78,0-4.89-3.67-7.64-5.2-11.61-4-16.5-5.5c-4.08-1.27-32.86-11.24-42.37-14.53a7,7,0,0,0-1.82,3.26c-1.37,5.94-1.25,12.1-1.11,18.19q.57,26.9,1.16,53.8a33.77,33.77,0,0,0,1,9.2,11.34,11.34,0,0,0,5.59,7.09s18.67,8.57,23.35,9.57S158.67,290,166.7,295.06s22.75,9.7,29.77,12,26.76,11.37,35.79,15.39a16.47,16.47,0,0,0,2,.71l3.29-3.56c2.1-2.25.45-7-.13-8.87S238,295.49,237.31,292.43Z" style="opacity:0.2"></path><path d="M335.46,173.08,327.52,180s-7.95,7-10.4,8.86-25.67,11.92-28.73,14.37-12.53,7-17.12,9.47-9.78,3.37-16.81,5.2-13.45,6.42-13.7,8.74,0,32.83.56,38-1.53,29.95,0,40.35c1.11,7.56,1.9,15,2.24,18.43a36.44,36.44,0,0,0,12.12-5.26c4-2.68,32.11-18.4,37.46-22.41s40.47-24.42,42.15-25.63,2-8.16,2.34-16.18S336.29,178,336,174.31A2.56,2.56,0,0,0,335.46,173.08Z" style="opacity:0.30000000000000004"></path><g style="opacity:0.2"><path d="M169.21,234.89c-.56-1.38-2-2.27-2.53-3.65s-.15-2.72-.14-4.09-.57-3-1.92-3.27l-1.63.4c-2,1-2.65,3.65-2.39,5.9s1.11,4.44,1.06,6.71a36.71,36.71,0,0,0-.25,3.77,3.22,3.22,0,0,0,2,3A2.94,2.94,0,0,0,166,243a8.89,8.89,0,0,0,1.73-2.17C168.83,239,170,236.85,169.21,234.89Z"></path><path d="M216.72,260.8c-.23-.87-.66-1.68-.94-2.54s-.34-1.57-.63-2.32a2.75,2.75,0,0,0-1.58-1.7,3.82,3.82,0,0,0-3.39.9,2.82,2.82,0,0,1-2.82.55c-1-.26-1.84-.8-2.79-1.14a7.18,7.18,0,0,0-4.84,0c-.94.35-1.91,1.08-1.89,2.08a3,3,0,0,0,1.34,2c1.88,1.56,3.94,3.2,6.38,3.3a24.47,24.47,0,0,1,2.84,0c1.45.22,2.64,1.22,3.95,1.85s3.14.8,4-.36A3,3,0,0,0,216.72,260.8Z"></path><path d="M221.38,248.6c-.55-.75-2.11-1.17-2.77-.51a2,2,0,0,0-.15,2.56,1.93,1.93,0,0,0,2.5.41A1.8,1.8,0,0,0,221.38,248.6Z"></path><path d="M136.66,249.47c-.28-.37-1.06-.58-1.39-.25a1,1,0,0,0-.07,1.27,1,1,0,0,0,1.25.21A.9.9,0,0,0,136.66,249.47Z"></path><path d="M121.51,210.59c-.28-.38-1.06-.59-1.39-.26a1,1,0,0,0-.07,1.28,1,1,0,0,0,1.25.21A.9.9,0,0,0,121.51,210.59Z"></path><path d="M214.44,231.07l-.19,0a4.34,4.34,0,0,0-3.54.39,4.44,4.44,0,0,0-1.35,2.44,2.58,2.58,0,0,0,.1,2.48,1.56,1.56,0,0,0,1.78.28,2.49,2.49,0,0,0,1.19-1.45,2.76,2.76,0,0,1,.63-1.32c.47-.39,1.19-.26,1.73-.56a1.26,1.26,0,0,0,.63-1.15A1.19,1.19,0,0,0,214.44,231.07Z"></path><path d="M121.71,216.72l.09.18a4.44,4.44,0,0,0,2.74,2.37,4.66,4.66,0,0,0,2.76-.68c.8-.39,1.7-.92,1.78-1.8a1.59,1.59,0,0,0-1-1.52,2.49,2.49,0,0,0-1.91.12,2.75,2.75,0,0,1-1.41.44c-.62-.08-1-.7-1.62-.9a1.26,1.26,0,0,0-1.3.33A1.2,1.2,0,0,0,121.71,216.72Z"></path><path d="M170.25,265a3.64,3.64,0,0,0-5,3c-.26.83-.48,1.84.11,2.48a1.53,1.53,0,0,0,1.77.28,2.48,2.48,0,0,0,1.2-1.45A2.74,2.74,0,0,1,169,268c.47-.39,1.19-.26,1.73-.56a1.24,1.24,0,0,0,.63-1.15A1.3,1.3,0,0,0,170.25,265Z"></path><path d="M115.13,237.69a4.68,4.68,0,0,0-3.69.54,4.63,4.63,0,0,0-1.38,2.49,2.63,2.63,0,0,0,.11,2.52,1.56,1.56,0,0,0,1.81.28,2.47,2.47,0,0,0,1.21-1.47,2.71,2.71,0,0,1,.64-1.34c.48-.4,1.21-.27,1.76-.57a1.28,1.28,0,0,0,.64-1.17A1.32,1.32,0,0,0,115.13,237.69Z"></path><path d="M184.43,273.85a3.77,3.77,0,0,0-3.54-.77c-2.15.66-3.25,3-5.09,4.31-2.21,1.55-5.2,1.35-7.71,2.34a2.42,2.42,0,0,0-1.38,1.08,1.76,1.76,0,0,0,.21,1.71,3.14,3.14,0,0,0,1.44,1c1.51.59,3.19.45,4.77.74.8.15,1.58.42,2.39.53a3.64,3.64,0,0,0,2.37-.32,4.4,4.4,0,0,0,1.74-2.7,8.64,8.64,0,0,1,1.22-3,11.87,11.87,0,0,1,2.39-1.88,3.07,3.07,0,0,0,1.45-2.54"></path><path d="M142.82,252.69c-.49-.49-1.75-1.49-2.82,0-.16.77-1.19,1.18-1.93,1.44a14.75,14.75,0,0,1-2.3.4,16.37,16.37,0,0,0-4.61,1.8c-.69.35-1.5.95-1.3,1.7s1,.87,1.68.78a5.21,5.21,0,0,1,2-.18c1.56.4,1.94,2.93,3.54,3.06a2.27,2.27,0,0,0,2-1.56,14.49,14.49,0,0,1,1.05-2.53,7,7,0,0,1,1.5-1.42,4.62,4.62,0,0,0,1.38-1.54A1.76,1.76,0,0,0,142.82,252.69Z"></path><path d="M214.45,292.58c-.54-.33-1.24-.19-1.85-.34a4.32,4.32,0,0,1-1.52-.88,3.52,3.52,0,0,0-1.54-.83,1.29,1.29,0,0,0-1.46.71l.11.93a12.37,12.37,0,0,1,1.92,1.7,5.61,5.61,0,0,0,2.12,1.43,2.33,2.33,0,0,0,2.39-.48A1.51,1.51,0,0,0,214.45,292.58Z"></path></g><g style="opacity:0.2"><path d="M181.39,187.39a15.88,15.88,0,0,0,5.35,4.14,8.47,8.47,0,0,0,6.62.22c1.84-.81,3.32-2.43,5.3-2.82,1-.19,2.16-.1,2.87-.82.89-.91.39-2.56-.66-3.27a6.51,6.51,0,0,0-3.66-.79l-12.07-.19a6.1,6.1,0,0,0-3.12.5,2.09,2.09,0,0,0-1,2.69"></path></g><g style="opacity:0.2"><path d="M173,184a1.74,1.74,0,0,0-.91-2l-.58-.31a2.33,2.33,0,0,0-2.67,1.65,2.7,2.7,0,0,0,.65,2.48,2,2,0,0,0,1.73.86c.86-.14,1.3-1.09,1.55-1.93C172.85,184.56,172.94,184.3,173,184Z"></path></g><g style="opacity:0.2"><path d="M207.58,168.88a9.74,9.74,0,0,0-3.34.54,1.8,1.8,0,0,0-1.13.83,1.31,1.31,0,0,0,.52,1.5,3.81,3.81,0,0,0,1.59.58,5.7,5.7,0,0,0,2.17.15,1.91,1.91,0,0,0,1.55-1.35C209.08,170.42,208.3,168.74,207.58,168.88Z"></path></g><g style="opacity:0.2"><path d="M173.07,153.81a10,10,0,0,0-3.35.54,1.78,1.78,0,0,0-1.13.84,1.32,1.32,0,0,0,.52,1.5,3.8,3.8,0,0,0,1.59.57,5.51,5.51,0,0,0,2.17.15,1.88,1.88,0,0,0,1.55-1.34C174.56,155.35,173.78,153.67,173.07,153.81Z"></path></g><g style="opacity:0.2"><path d="M199.6,148.92a3.56,3.56,0,0,0-3.14-.12c-1,.37-2,1-3,1.35-2.49.93-5.26.41-7.92.53a6.7,6.7,0,0,0-3.41.89,3.17,3.17,0,0,0-1.53,3c.31,1.88,2.67,2.7,4.54,2.38s3.57-1.36,5.44-1.7a16.94,16.94,0,0,1,5.26.22,9.43,9.43,0,0,0,3.63,0,3.66,3.66,0,0,0,2.66-2.27C202.52,152,201.18,149.63,199.6,148.92Z"></path></g><g style="opacity:0.2"><path d="M281.7,187a2.3,2.3,0,0,0-2.95,0,2.17,2.17,0,0,0-.24,2.9,2.07,2.07,0,0,0,2.87.24C282.18,189.41,282.52,187.7,281.7,187Z"></path></g><g style="opacity:0.2"><path d="M273,186.31a6.56,6.56,0,0,0-3.49-.68c-1.44,0-3,0-4.1,1a8.63,8.63,0,0,0-1.27,1.71,19,19,0,0,1-4.54,4.25c-1,1.84.84,2.31,1.25,2.65a2.32,2.32,0,0,0,1.53.37,16,16,0,0,0,4.4-.65,4.49,4.49,0,0,0,3-2.1,8.2,8.2,0,0,1,.68-1.64c.77-1,2.5-.81,3.3-1.8S274,187,273,186.31Z"></path></g><g style="opacity:0.30000000000000004"><path d="M282.05,224.29a1.47,1.47,0,0,0-2-.92l-.22-.18a3.78,3.78,0,0,1-2.89-.91,10.57,10.57,0,0,0-2.62-1.69,2.25,2.25,0,0,0-2.73.85,8.28,8.28,0,0,1-.38,1c-.49.81-1.79.83-2.26,1.65s.34,2,1.27,2.41a11.2,11.2,0,0,1,2.82,1.18c.78.67,1.08,1.76,1.82,2.48a3.57,3.57,0,0,0,4.24.22,7.12,7.12,0,0,0,2.68-3.61A3.59,3.59,0,0,0,282.05,224.29Z"></path><path d="M296.55,264.2a10.12,10.12,0,0,1-1.17-2.41l-1.09-.55a3.4,3.4,0,0,0-5.57,2.33,9.07,9.07,0,0,1-.11,2.28c-.26.8-1,1.35-1.37,2.11a2.72,2.72,0,0,0,.78,3.16,3.29,3.29,0,0,0,3.31.39,4.16,4.16,0,0,0,2.25-2.55c.3-.91.5-2.08,1.42-2.33.3-.08.64,0,.94-.13C296.8,266.24,296.91,265,296.55,264.2Z"></path><path d="M264.61,239.16a3.29,3.29,0,0,0-4.88,2.79c0,.82.55,1.82,1.36,1.68a1.83,1.83,0,0,0,1-.86c.78-1.09,1.88-2.21,2.65-3.3Z"></path><path d="M266.89,247.59l-.23.07a1.51,1.51,0,1,0,2,1.84A1.6,1.6,0,0,0,266.89,247.59Z"></path><path d="M265.44,293.09a3.8,3.8,0,0,0-2.32.2l-4.33,1.27c-.74.21-1.59.53-1.83,1.27A2,2,0,0,0,258,297.9a10.83,10.83,0,0,1,2.15,1.31c.6.6.76,1.76.05,2.2a1.26,1.26,0,0,0,1.81-.34,4,4,0,0,0,.51-2,3.12,3.12,0,0,1,.67-1.94c.83-.84,2.41-.66,3.09-1.63A1.71,1.71,0,0,0,265.44,293.09Z"></path><path d="M297.71,233.85a1.5,1.5,0,1,0,.05,0"></path><path d="M323.55,214.27a3,3,0,0,0-1.79-1.45l-5.3-2.37a1.73,1.73,0,0,0-1.39-.2,1.19,1.19,0,0,0-.53,1.37,3.63,3.63,0,0,0,.83,1.34l-.13.31a3.76,3.76,0,0,0-1.9.76,1.3,1.3,0,0,0-.15,1.84c.56.49,1.42.17,2.16.2,1.66.07,2.76,2,4.42,2.2a3.61,3.61,0,0,0,3.24-1.73A2.52,2.52,0,0,0,323.55,214.27Z"></path><path d="M323.56,263.46l-1.19-.69a3.25,3.25,0,0,0-2.69.24,4.88,4.88,0,0,0-1.4,1.62,4.07,4.07,0,0,1-1.45,1.57,4.38,4.38,0,0,1-2.1.3,4,4,0,0,0-2.09.35,1.43,1.43,0,0,0-.65,1.83c.3.48.92.63,1.38,1,.69.51.95,1.42,1.46,2.12a3.55,3.55,0,0,0,6-.43c.39-.74.51-1.61,1-2.32.67-1,2-1.56,2.52-2.66A2.24,2.24,0,0,0,323.56,263.46Z"></path></g><path d="M100.83,178.56s23.87,10.15,29,10.71,24.44,7.5,26.5,8.82,3.38,3.93,5.07,4.12,5.46-2.25,8.07-.94,13.87,3.94,18.74,5.25S200,208.94,203,210.17s18.18,6.22,23.24,8.13,10.69,6.14,11.63,7.4.65,54.89.65,54.89-.17,24.8.58,23.11c0,0,1.12-24.22,1-28.46s-.07-10.25,0-13-.89-15.47-.63-19.71-.09-14.77.18-17.42,8.84-6.54,13.35-8.31,8.48-1.23,14.58-3.88a134.44,134.44,0,0,0,18.47-10.35,130.32,130.32,0,0,1,20.77-10.16c4.42-1.59,10-3.8,11.37-5.3s14.62-14,14.62-14-.79-.2-2.47.82-12.2,10.67-14.32,11.72-24.6,11.66-26.93,13.16-15.94,10-20.71,11.39-15.65,5.05-19.1,6-7.95,5-11.22,5.21-6.9-3.36-11.58-4.95-16.26-7.07-20.68-7.87-16.53-4.33-19.89-4.86-14.47-4.15-17.22-4.68-4.35,1.5-8.77-1.15a51.21,51.21,0,0,0-11.22-5c-1.42-.26-26.53-8-28.91-8.66S100.36,177,100.83,178.56Z" style="fill:#fff;opacity:0.30000000000000004"></path><path d="M275.49,306.94s-3.5-51.76-1.38-60.65,63.18-32.06,63.18-32.06L338,264a8.73,8.73,0,0,1-4.1,7.52Z" style="opacity:0.2"></path><path d="M261.82,161.84c-2.71-1.14-5.8-.94-8.74-.71-1.61-2.89-6-3.73-9.31-2.7s-5.84,3.39-8.29,5.63-5,4.23-8.18,5.06c-2.5-.16-5.08-.33-7.74-.48a40.6,40.6,0,0,0,12.95-4.22c1.4-.73,2.87-1.7,3.29-3.22s-1-3.48-2.5-2.91a14.64,14.64,0,0,0,3.92-2.65,5,5,0,0,0,1.49-4.31,3.07,3.07,0,0,0-3.47-2.46,7,7,0,0,0-12.88-5.22l-.9-1a3,3,0,0,0-4.77.35,22.42,22.42,0,0,0-2.21,6.49c-1.55,6.45-4.65,13.61-9,18.64l.53,0h.05c-2.3,0-4.54.16-6.67.34a62.8,62.8,0,0,0-13.46,2.6,42.41,42.41,0,0,0-8.46,3.7c-1,.55-1.65,1-2.12,1.35a5,5,0,0,0-.71.52,5.79,5.79,0,0,0,.76-.43c.49-.31,1.21-.75,2.17-1.26a45.68,45.68,0,0,1,8.47-3.53A64.65,64.65,0,0,1,199.45,169c2-.16,4-.27,6.15-.31a99.71,99.71,0,0,0,5.88,14.19c2.24,4.29,5.57,8.2,10,10.11a9.06,9.06,0,0,0,6.9.44,6.56,6.56,0,0,0,2.67-9.53c1,.82,2.55-.33,2.58-1.59a4.69,4.69,0,0,0-1.78-3.21A38,38,0,0,0,212.29,169a38.33,38.33,0,0,0,4,0c3.36.19,6.62.38,9.76.58l-.11,0c6.63,7.6,18.16,13.08,28.65,12.27a12.55,12.55,0,0,0,4.89-1.17,4.64,4.64,0,0,0,2.67-3.68c0-1.27-.64-2.55-.4-3.81.37-1.95,2.76-3,3.65-4.82C266.59,166,264.53,163,261.82,161.84Z" style="opacity:0.2"></path><path d="M240.2,149a3.07,3.07,0,0,0-3.46-2.46,7,7,0,0,0-12.89-5.22l-.9-1a3,3,0,0,0-4.77.34,23,23,0,0,0-2.21,6.49c-1.54,6.46-4.65,13.61-9,18.65l.53,0A38.89,38.89,0,0,0,234,162.13c1.4-.74,2.87-1.7,3.29-3.23s-1-3.47-2.49-2.91a14.79,14.79,0,0,0,3.91-2.64A5,5,0,0,0,240.2,149Z" style="fill:#455a64"></path><path d="M235.13,180a4.69,4.69,0,0,0-1.78-3.21,37.86,37.86,0,0,0-25.75-10.7H207a101,101,0,0,0,6,14.48c2.24,4.28,5.57,8.2,10,10.11a9.06,9.06,0,0,0,6.9.44,6.58,6.58,0,0,0,2.67-9.54C233.51,182.39,235.1,181.25,235.13,180Z" style="fill:#455a64"></path><path d="M263.32,159.55c-2.71-1.14-5.81-.94-8.75-.72-1.61-2.89-6-3.72-9.31-2.7s-5.83,3.4-8.29,5.64-5.37,4.53-8.8,5.22l-.72.31c6.62,7.59,18.16,13.08,28.64,12.27a12.34,12.34,0,0,0,4.89-1.18,4.6,4.6,0,0,0,2.67-3.67c.05-1.28-.63-2.56-.4-3.81.37-2,2.77-3,3.65-4.82C268.08,163.66,266,160.68,263.32,159.55Z" style="fill:#455a64"></path><path d="M176.15,174.37a4.78,4.78,0,0,1,.71-.52A23.09,23.09,0,0,1,179,172.5a43.2,43.2,0,0,1,8.46-3.71,63.46,63.46,0,0,1,13.46-2.59c2.57-.23,5.28-.37,8.09-.35s5.71.13,8.68.3c11.88.65,22.61,1.52,30.39,1.92,3.88.21,7,.34,9.21.36,1.09,0,1.93,0,2.5,0a4.93,4.93,0,0,1,.88,0,7.5,7.5,0,0,1-.87.07c-.58,0-1.42.09-2.51.09-2.18,0-5.34,0-9.23-.2-7.79-.31-18.53-1.12-30.4-1.77-3-.17-5.86-.28-8.65-.31s-5.49.11-8.05.32a64.12,64.12,0,0,0-13.39,2.47,45.29,45.29,0,0,0-8.47,3.53c-1,.51-1.68.95-2.16,1.25A6.5,6.5,0,0,1,176.15,174.37Z" style="fill:#263238"></path><path d="M229.6,148.71a4.55,4.55,0,0,1-.53.95c-.36.59-.93,1.42-1.68,2.41a46.32,46.32,0,0,1-14.67,12.61c-1.09.59-2,1-2.64,1.3a3.82,3.82,0,0,1-1,.37c0-.07,1.35-.74,3.48-2a53.88,53.88,0,0,0,14.56-12.51C228.66,149.93,229.52,148.66,229.6,148.71Z" style="fill:#263238"></path><path d="M224.23,182c-.07,0-.64-1-1.66-2.63a54,54,0,0,0-4.4-6,53.24,53.24,0,0,0-5.24-5.32,26.3,26.3,0,0,1-2.32-2.07,3.35,3.35,0,0,1,.72.43c.45.29,1.08.76,1.84,1.36a39.88,39.88,0,0,1,5.39,5.27,40.51,40.51,0,0,1,4.33,6.18c.47.84.82,1.54,1,2A2.45,2.45,0,0,1,224.23,182Z" style="fill:#263238"></path><path d="M373.82,264.05c.25.74,3.59,2.38,2.23,19.26-.94,11.57-1.71,22.72-1.1,31.36S373.58,328,366.42,329s-25.19,2.22-39,3.46-23.47,4.69-27.91,1.48-8.15-11.86-11.11-15.56-6.18-6.18-7.66-11.36-.74-46.68,0-51.86.49-9.14,6.42-10.87,7.9-2,16.79-2.47,13.09,1.23,16.06,0,8.15-1.48,11.85-2.22,15.56-.5,18,0S373.82,264.05,373.82,264.05Z" style="fill:#FF725E"></path><g style="opacity:0.2"><path d="M359.39,287.45c.51-1.26,1.81-2.07,2.31-3.33s.13-2.48.12-3.73.52-2.74,1.75-3l1.49.36c1.85.91,2.41,3.33,2.18,5.39s-1,4-1,6.11a33.11,33.11,0,0,1,.23,3.44,2.93,2.93,0,0,1-1.79,2.71,2.64,2.64,0,0,1-2.36-.61,7.62,7.62,0,0,1-1.58-2C359.73,291.21,358.66,289.24,359.39,287.45Z"></path><path d="M316.07,311.07c.21-.8.61-1.53.86-2.32s.32-1.43.58-2.11a2.48,2.48,0,0,1,1.43-1.55,3.47,3.47,0,0,1,3.09.82,2.56,2.56,0,0,0,2.57.5c.89-.24,1.69-.73,2.55-1a6.55,6.55,0,0,1,4.41,0c.86.32,1.75,1,1.73,1.9a2.71,2.71,0,0,1-1.23,1.81c-1.71,1.42-3.59,2.92-5.81,3a24.88,24.88,0,0,0-2.59,0c-1.32.2-2.4,1.11-3.6,1.69s-2.87.73-3.69-.33A2.77,2.77,0,0,1,316.07,311.07Z"></path><path d="M318.15,284l.18-.05a3.94,3.94,0,0,1,3.22.35,4.15,4.15,0,0,1,1.24,2.23,2.36,2.36,0,0,1-.1,2.26,1.39,1.39,0,0,1-1.62.25,2.28,2.28,0,0,1-1.09-1.32,2.44,2.44,0,0,0-.57-1.2c-.43-.35-1.08-.24-1.57-.51a1.14,1.14,0,0,1-.58-1.05A1.07,1.07,0,0,1,318.15,284Z"></path><path d="M351.63,305.11a3.34,3.34,0,0,1,4.55,2.71c.23.76.43,1.68-.1,2.26a1.41,1.41,0,0,1-1.62.26,2.26,2.26,0,0,1-1.09-1.33,2.45,2.45,0,0,0-.57-1.19c-.43-.36-1.09-.25-1.58-.51a1.14,1.14,0,0,1-.57-1.05A1.18,1.18,0,0,1,351.63,305.11Z"></path><path d="M338.33,325.43c.49-.3,1.13-.17,1.69-.31a3.84,3.84,0,0,0,1.38-.8,3.35,3.35,0,0,1,1.41-.76,1.18,1.18,0,0,1,1.33.65l-.1.84a11.76,11.76,0,0,0-1.75,1.56,5.31,5.31,0,0,1-1.93,1.3,2.14,2.14,0,0,1-2.18-.43A1.38,1.38,0,0,1,338.33,325.43Z"></path></g><g style="opacity:0.2"><path d="M287.13,267.08a3.79,3.79,0,0,1,3.65,0,3.83,3.83,0,0,1,1.88,3.14c0,.93-.62,2.07-1.54,1.91a2,2,0,0,1-1.18-1c-.88-1.23-2.13-2.51-3-3.74Z"></path></g><g style="opacity:0.2"><path d="M284.54,273.05a1.73,1.73,0,1,0,.27.08"></path></g><g style="opacity:0.2"><path d="M292.49,316.05l2.88.84c.5.15,1.06.36,1.22.85a1.3,1.3,0,0,1-.72,1.38,7.38,7.38,0,0,0-1.43.87c-.39.4-.51,1.17,0,1.47a.85.85,0,0,1-1.2-.23,2.65,2.65,0,0,1-.35-1.34,2.1,2.1,0,0,0-.44-1.29c-.55-.56-1.6-.43-2.06-1.08a1.14,1.14,0,0,1,.59-1.6,1.6,1.6,0,0,1,1.75.57"></path></g><g style="opacity:0.2"><path d="M326.37,264.24a13.51,13.51,0,0,1-4.54,3.51,7.11,7.11,0,0,1-5.61.18c-1.57-.68-2.82-2.06-4.5-2.39-.84-.16-1.83-.08-2.43-.69a1.94,1.94,0,0,1,.55-2.78,5.51,5.51,0,0,1,3.11-.66l10.24-.17a5.16,5.16,0,0,1,2.65.43,1.76,1.76,0,0,1,.83,2.28"></path></g><g style="opacity:0.2"><path d="M333.48,261.38a1.47,1.47,0,0,1,.77-1.68l.5-.27a2,2,0,0,1,2.25,1.4,2.28,2.28,0,0,1-.55,2.11,1.68,1.68,0,0,1-1.46.73c-.73-.12-1.1-.93-1.32-1.64C333.61,261.84,333.54,261.62,333.48,261.38Z"></path></g><g style="opacity:0.2"><path d="M304.15,248.53A8.58,8.58,0,0,1,307,249a1.53,1.53,0,0,1,1,.71,1.13,1.13,0,0,1-.44,1.27,3.23,3.23,0,0,1-1.36.49,4.72,4.72,0,0,1-1.83.13,1.61,1.61,0,0,1-1.32-1.14C302.88,249.84,303.55,248.41,304.15,248.53Z"></path></g><g style="opacity:0.2"><path d="M333.69,243.2a3,3,0,0,1,2.66-.1c.87.31,1.65.83,2.52,1.15,2.11.78,4.46.34,6.72.44a5.7,5.7,0,0,1,2.89.76,2.69,2.69,0,0,1,1.3,2.55c-.27,1.59-2.26,2.29-3.85,2s-3-1.15-4.62-1.44a14.25,14.25,0,0,0-4.46.19,8.18,8.18,0,0,1-3.08,0,3.09,3.09,0,0,1-2.25-1.93C331.21,245.83,332.35,243.8,333.69,243.2Z"></path></g><path d="M306,333.68c-1.6-1.45.45-7.88,0-11.63s.35-24.64.74-29.17,2-10.49,1.76-13-.87-4.77.44-5.27c2.81-1.08,11.22-2,15.35-1.61s15.42-1.75,20.93-2.14,14.39-1.78,17.94-2.37c2.9-.48,9.87-.83,12.31-.95.72,2.59,1.24,7.23.55,15.81-.94,11.57-1.71,22.72-1.1,31.36S373.58,328,366.42,329s-25.19,2.22-39,3.46c-7.47.66-13.7,2-18.56,2.53A12,12,0,0,1,306,333.68Z" style="opacity:0.2"></path><path d="M280.72,255.16c.43-3,.54-5.62,1.71-7.61.06.06,9.82,10.47,13.36,16.17s9.88,9.07,9.57,15.57-1.88,23.45-1.88,23.45-.4,12.61-.4,13.4v19a7.44,7.44,0,0,1-3.59-1.22c-4.45-3.21-8.15-11.86-11.11-15.56s-6.18-6.18-7.66-11.36S280,260.34,280.72,255.16Z" style="opacity:0.30000000000000004"></path><path d="M308.36,272.07s10-1.56,16.6-1.84,24.48-2.39,28.91-3.69,16.9,0,16.71-2.43-20.49-23.73-19.6-23,20,20.2,21.32,22.51c1.06,1.83,1,2.39-1.43,2.94s-60.42,6-61.63,6.4S308.36,272.07,308.36,272.07Z" style="fill:#fff;opacity:0.30000000000000004"></path></g><g id="freepik--tofu-pieces--inject-477"><path d="M146.79,371.69c-.23.69-3.36,2.24-2.08,18.05.87,10.84,1.6,21.29,1,29.39s1.28,12.49,8,13.42,23.6,2.08,36.56,3.23,22,4.4,26.15,1.39,7.63-11.1,10.41-14.57,5.78-5.79,7.17-10.65.7-43.73,0-48.59-.46-8.56-6-10.18-7.41-1.85-15.74-2.31-12.26,1.15-15,0-7.63-1.39-11.11-2.09-14.57-.46-16.89,0S146.79,371.69,146.79,371.69Z" style="fill:#FF725E"></path><g style="opacity:0.2"><path d="M160.31,393.62c-.48-1.18-1.7-1.94-2.16-3.12s-.13-2.32-.11-3.5-.49-2.57-1.64-2.79l-1.4.34c-1.73.85-2.26,3.12-2,5.05s.95,3.79.9,5.72c0,1.08-.29,2.15-.21,3.23a2.74,2.74,0,0,0,1.67,2.53,2.48,2.48,0,0,0,2.22-.56,7.23,7.23,0,0,0,1.48-1.86C160,397.14,161,395.29,160.31,393.62Z"></path><path d="M200.9,415.75c-.2-.75-.57-1.44-.8-2.18s-.3-1.33-.55-2a2.35,2.35,0,0,0-1.34-1.46,3.29,3.29,0,0,0-2.9.77,2.42,2.42,0,0,1-2.41.48c-.83-.23-1.57-.69-2.38-1a6.16,6.16,0,0,0-4.13,0c-.81.29-1.64.92-1.62,1.77a2.48,2.48,0,0,0,1.15,1.7c1.6,1.34,3.36,2.74,5.44,2.83a21.91,21.91,0,0,1,2.43,0c1.24.19,2.25,1.05,3.38,1.59s2.68.68,3.45-.31A2.57,2.57,0,0,0,200.9,415.75Z"></path><path d="M199,390.36l-.17-.05a3.71,3.71,0,0,0-3,.33,3.89,3.89,0,0,0-1.15,2.09,2.2,2.2,0,0,0,.09,2.12,1.31,1.31,0,0,0,1.51.23,2.07,2.07,0,0,0,1-1.24,2.35,2.35,0,0,1,.54-1.12c.4-.33,1-.23,1.48-.48a1.09,1.09,0,0,0,.54-1A1,1,0,0,0,199,390.36Z"></path><path d="M167.58,410.17a3.89,3.89,0,0,0-3.1.45,4,4,0,0,0-1.16,2.09,2.21,2.21,0,0,0,.1,2.11,1.3,1.3,0,0,0,1.51.24,2.07,2.07,0,0,0,1-1.24,2.31,2.31,0,0,1,.54-1.12c.4-.33,1-.23,1.48-.48a1.09,1.09,0,0,0,.54-1A1.11,1.11,0,0,0,167.58,410.17Z"></path><path d="M180,429.2c-.46-.28-1-.16-1.58-.29a3.5,3.5,0,0,1-1.29-.75,3.15,3.15,0,0,0-1.32-.71,1.1,1.1,0,0,0-1.25.61l.09.79a11.42,11.42,0,0,1,1.65,1.46,4.69,4.69,0,0,0,1.8,1.22,2,2,0,0,0,2.05-.41A1.3,1.3,0,0,0,180,429.2Z"></path></g><g style="opacity:0.2"><path d="M228,374.53a3.49,3.49,0,0,0-5.17,3c0,.88.57,1.94,1.44,1.79a1.9,1.9,0,0,0,1.1-.92c.83-1.15,2-2.34,2.82-3.5Z"></path></g><g style="opacity:0.2"><path d="M230.44,380.13a1.61,1.61,0,1,1-.25.07"></path></g><g style="opacity:0.2"><path d="M223,420.41l-2.7.79c-.46.14-1,.33-1.14.79a1.24,1.24,0,0,0,.68,1.3,6.78,6.78,0,0,1,1.34.82c.37.37.47,1.09,0,1.37a.77.77,0,0,0,1.12-.22,2.39,2.39,0,0,0,.32-1.24,2,2,0,0,1,.42-1.21c.52-.53,1.5-.41,1.92-1a1.06,1.06,0,0,0-.54-1.5,1.49,1.49,0,0,0-1.64.54"></path></g><g style="opacity:0.2"><path d="M191.25,371.87a12.49,12.49,0,0,0,4.25,3.29,6.69,6.69,0,0,0,5.26.17c1.47-.64,2.65-1.93,4.21-2.24.8-.15,1.72-.08,2.29-.65a1.8,1.8,0,0,0-.53-2.6,5.15,5.15,0,0,0-2.91-.62l-9.59-.16a5,5,0,0,0-2.48.4,1.66,1.66,0,0,0-.79,2.14"></path></g><g style="opacity:0.2"><path d="M184.59,369.2a1.39,1.39,0,0,0-.72-1.59l-.47-.24a1.84,1.84,0,0,0-2.11,1.31,2.15,2.15,0,0,0,.51,2,1.6,1.6,0,0,0,1.37.68c.69-.11,1-.87,1.24-1.54C184.46,369.62,184.53,369.41,184.59,369.2Z"></path></g><g style="opacity:0.2"><path d="M212.07,357.16a7.53,7.53,0,0,0-2.66.43,1.37,1.37,0,0,0-.9.66,1.05,1.05,0,0,0,.41,1.19,3.19,3.19,0,0,0,1.27.46,4.56,4.56,0,0,0,1.72.12,1.5,1.5,0,0,0,1.23-1.07C213.26,358.38,212.63,357,212.07,357.16Z"></path></g><g style="opacity:0.2"><path d="M184.39,352.16a2.86,2.86,0,0,0-2.49-.1c-.81.3-1.55.78-2.36,1.08-2,.74-4.18.32-6.29.42a5.34,5.34,0,0,0-2.72.71,2.5,2.5,0,0,0-1.21,2.39c.25,1.49,2.12,2.15,3.61,1.89s2.83-1.08,4.32-1.35a13.37,13.37,0,0,1,4.18.18,7.8,7.8,0,0,0,2.89,0,2.92,2.92,0,0,0,2.11-1.81C186.71,354.62,185.65,352.72,184.39,352.16Z"></path></g><path d="M210.35,436.93c1.51-1.35-.42-7.38,0-10.89s-.33-23.09-.7-27.33-1.86-9.83-1.64-12.22.81-4.47-.41-4.94c-2.64-1-10.52-1.87-14.39-1.51s-14.44-1.64-19.61-2-13.48-1.66-16.81-2.21c-2.71-.46-9.24-.79-11.53-.89-.67,2.43-1.16,6.77-.51,14.81.87,10.84,1.6,21.29,1,29.39s1.28,12.49,8,13.42,23.6,2.08,36.56,3.23c7,.63,12.83,1.85,17.39,2.38A11,11,0,0,0,210.35,436.93Z" style="opacity:0.2"></path><path d="M234,363.36c-.4-2.83-.5-5.26-1.6-7.13-.06.06-9.2,9.82-12.52,15.16s-9.25,8.49-9,14.58,1.76,22,1.76,22,.37,11.82.37,12.56v17.82a7,7,0,0,0,3.37-1.15c4.16-3,7.63-11.1,10.41-14.57s5.78-5.79,7.17-10.65S234.72,368.22,234,363.36Z" style="opacity:0.30000000000000004"></path><path d="M148.1,374.1s21.62,2.59,24.52,2.6,11.79.78,17,1.36,14.85-.58,17.17,0,7.14-6.06,9.84-8.73,11.84-12.95,13.41-13.1-18.61,21.35-19.09,24.47a15.13,15.13,0,0,0,0,5.27c.09,1.65,1.25,31.08,1.25,35.52v5.94s-.84-5.94-1.39-10.38.13-20.75-1.41-26.64a25.74,25.74,0,0,1-.77-6.59A3.67,3.67,0,0,0,205,380.1c-5.65,0-15.7-.09-18.5-.45C182.52,379.14,148.1,374.1,148.1,374.1Z" style="fill:#fff;opacity:0.30000000000000004"></path><path d="M219.59,433.82s-2.19-12-1.41-16.23,11-1.54,11-1.54l-4.07,9.44Z" style="opacity:0.2"></path><path d="M240.83,367.05c-.48.55-4,.77-8.88,15.85-3.37,10.34-6.73,20.26-10.38,27.51s-3.63,12,2.21,15.47,21,11,32.48,17.08,18.59,12.53,23.59,11.36,11.33-7.31,15.23-9.44,7.57-3.11,10.72-7.06,17.5-40.08,18.73-44.83,2.87-8.08-1.63-11.72-6.12-4.56-13.62-8.2-11.77-3.66-13.88-5.79-6.51-4.23-9.45-6.21-13.27-6-15.58-6.51S240.83,367.05,240.83,367.05Z" style="fill:#FF725E"></path><g style="opacity:0.2"><path d="M244.86,392.5c0-1.28-.83-2.45-.8-3.72s.78-2.19,1.24-3.27.54-2.56-.43-3.21l-1.42-.22c-1.93.12-3.29,2-3.83,3.87s-.58,3.86-1.37,5.63c-.44,1-1.1,1.87-1.44,2.89a2.77,2.77,0,0,0,.56,3,2.5,2.5,0,0,0,2.27.33,7.17,7.17,0,0,0,2.08-1.14C243.2,395.62,244.84,394.3,244.86,392.5Z"></path><path d="M273.77,428.56c.11-.77,0-1.55.1-2.32s.24-1.35.26-2a2.33,2.33,0,0,0-.68-1.86,3.25,3.25,0,0,0-3-.41,2.41,2.41,0,0,1-2.4-.49c-.68-.53-1.19-1.24-1.82-1.82a6.18,6.18,0,0,0-3.82-1.59,2.14,2.14,0,0,0-2.18,1,2.54,2.54,0,0,0,.41,2c1,1.85,2.05,3.82,3.94,4.71a21.93,21.93,0,0,1,2.24.92c1.07.65,1.67,1.83,2.5,2.77s2.22,1.66,3.31,1A2.55,2.55,0,0,0,273.77,428.56Z"></path><path d="M281.76,404.38l-.13-.11a3.77,3.77,0,0,0-2.92-.86,4,4,0,0,0-1.87,1.48c-.47.57-1,1.29-.73,2a1.31,1.31,0,0,0,1.31.8,2.08,2.08,0,0,0,1.42-.75c.27-.31.52-.7.92-.83s1,.19,1.55.13a1.07,1.07,0,0,0,.88-.7A1,1,0,0,0,281.76,404.38Z"></path><path d="M245.18,410.57a3.11,3.11,0,0,0-4.9.7c-.48.57-1,1.29-.74,2a1.32,1.32,0,0,0,1.31.8,2.06,2.06,0,0,0,1.42-.75c.28-.31.52-.71.93-.83s1,.18,1.55.13a1.05,1.05,0,0,0,.87-.7A1.1,1.1,0,0,0,245.18,410.57Z"></path><path d="M249.34,432.94c-.32-.44-.91-.56-1.34-.88a3.6,3.6,0,0,1-.91-1.2,3.15,3.15,0,0,0-.94-1.16,1.11,1.11,0,0,0-1.39.08l-.22.77a10.66,10.66,0,0,1,1,2,4.86,4.86,0,0,0,1.2,1.82,2,2,0,0,0,2,.41A1.28,1.28,0,0,0,249.34,432.94Z"></path></g><g style="opacity:0.2"><path d="M314.68,401a3.54,3.54,0,0,0-3.17-1.3,3.58,3.58,0,0,0-2.75,2c-.36.8-.21,2,.64,2.21a1.94,1.94,0,0,0,1.38-.42c1.2-.75,2.74-1.4,4-2.15Z"></path></g><g style="opacity:0.2"><path d="M314.76,407.08a1.61,1.61,0,1,1-.25,0"></path></g><g style="opacity:0.2"><path d="M292.36,441.38l-2.79-.31a1.5,1.5,0,0,0-1.36.29,1.21,1.21,0,0,0,.12,1.45,6.94,6.94,0,0,1,.92,1.27c.2.49,0,1.19-.5,1.28a.79.79,0,0,0,1.12.24,2.5,2.5,0,0,0,.78-1,2,2,0,0,1,.85-1c.68-.28,1.55.2,2.17-.19a1.06,1.06,0,0,0,.07-1.6,1.52,1.52,0,0,0-1.72-.14"></path></g><g style="opacity:0.2"><path d="M281.78,384.35a12.68,12.68,0,0,0,2.66,4.67,6.64,6.64,0,0,0,4.79,2.19c1.59,0,3.18-.76,4.75-.44.79.16,1.61.59,2.35.28a1.8,1.8,0,0,0,.52-2.6,5.12,5.12,0,0,0-2.45-1.7l-8.79-3.84a4.81,4.81,0,0,0-2.44-.59,1.67,1.67,0,0,0-1.55,1.67"></path></g><g style="opacity:0.2"><path d="M276.67,379.32a1.41,1.41,0,0,0-.05-1.74l-.34-.41a1.85,1.85,0,0,0-2.46.4,2.16,2.16,0,0,0-.29,2,1.61,1.61,0,0,0,1,1.16c.67.16,1.29-.41,1.73-.94Z"></path></g><g style="opacity:0.2"><path d="M306.66,378.8a7.8,7.8,0,0,0-2.61-.63,1.46,1.46,0,0,0-1.09.26,1,1,0,0,0-.08,1.26,3,3,0,0,0,1,.92,4.5,4.5,0,0,0,1.53.77,1.51,1.51,0,0,0,1.56-.51C307.29,380.39,307.23,378.91,306.66,378.8Z"></path></g><g style="opacity:0.2"><path d="M283.05,363.52a2.84,2.84,0,0,0-2.26-1c-.87,0-1.73.12-2.59.09-2.11-.09-4-1.32-6-2.05a5.44,5.44,0,0,0-2.78-.39,2.52,2.52,0,0,0-2,1.74c-.34,1.47,1.13,2.8,2.6,3.14s3,.09,4.51.42a13.64,13.64,0,0,1,3.79,1.77,7.47,7.47,0,0,0,2.67,1.09,2.92,2.92,0,0,0,2.65-.85C284.25,366.69,284,364.52,283.05,363.52Z"></path></g><path d="M274.33,451.75c1.91-.67,2.46-7,4.16-10.07s8.6-21.43,9.89-25.49,2.07-9.79,3.2-11.91,2.47-3.8,1.52-4.71c-2-1.95-9-5.78-12.7-6.94s-12.69-7.08-17.32-9.41-11.79-6.73-14.65-8.52c-2.33-1.47-8.23-4.29-10.3-5.27-1.55,2-3.68,5.8-6.18,13.47-3.37,10.34-6.73,20.26-10.38,27.51s-3.63,12,2.21,15.47,21,11,32.48,17.08c6.21,3.27,11.13,6.65,15.13,8.89A11.43,11.43,0,0,0,274.33,451.75Z" style="opacity:0.2"></path><path d="M324.53,393c.72-2.77,1.57-5.05,1.27-7.2-.08,0-12.28,5.51-17.39,9.16s-11.81,4.27-13.9,10-6.84,21-6.84,21-4.21,11-4.5,11.72-6.27,15-6.86,16.45a7,7,0,0,0,3.54.24c5-1.17,11.33-7.31,15.23-9.44s7.57-3.11,10.72-7.06S323.3,397.74,324.53,393Z" style="opacity:0.30000000000000004"></path><path d="M241.11,369.78s18.95,10.72,21.62,11.84,10.58,5.27,15.16,7.81,13.93,5.19,15.84,6.62,8.92-2.84,12.45-4.26,15.91-7.39,17.42-6.92-25.4,12.53-27.05,15.21a15.59,15.59,0,0,0-2,4.87c-.55,1.56-10.82,29.16-12.53,33.25s-2.3,5.49-2.3,5.49,1.52-5.81,2.73-10.12,8.11-19.09,9-25.11a25.72,25.72,0,0,1,1.82-6.38,3.65,3.65,0,0,0-1.93-4.84c-5.21-2.19-14.45-6.14-16.89-7.55C270.93,387.69,241.11,369.78,241.11,369.78Z" style="fill:#fff;opacity:0.30000000000000004"></path></g></svg>
