<svg xmlns="http://www.w3.org/2000/svg" viewBox="0 0 500 500"><g id="freepik--background-simple--inject-426"><path d="M467.39,328.68c-20.65,41.64-57.28,84.81-101.84,93.11-67.33,12.54-82.62,68.54-197.48,47.88A216,216,0,0,1,119.17,455,185,185,0,0,1,96.81,443.3c-63.52-39-90-109.64-83.7-179.07C21.33,172.91,84.87,137.31,125.79,117S225.05,4.42,338.13,23.76A209.37,209.37,0,0,1,388.4,38.81c36.73,16.44,72.26,46.71,90,86.4q2,4.47,3.74,9.1C504.86,194.56,495.54,271.91,467.39,328.68Z" style="fill:#92E3A9"></path><path d="M467.39,328.68c-20.65,41.64-57.28,84.81-101.84,93.11-67.33,12.54-82.62,68.54-197.48,47.88A216,216,0,0,1,119.17,455,185,185,0,0,1,96.81,443.3c-63.52-39-90-109.64-83.7-179.07C21.33,172.91,84.87,137.31,125.79,117S225.05,4.42,338.13,23.76A209.37,209.37,0,0,1,388.4,38.81c36.73,16.44,72.26,46.71,90,86.4q2,4.47,3.74,9.1C504.86,194.56,495.54,271.91,467.39,328.68Z" style="fill:#fff;opacity:0.8"></path></g><g id="freepik--Plate--inject-426"><path d="M446.52,223.23c-29.3-51.43-98.48-87.58-179.16-87.58S117.5,171.79,88.19,223.23c-10.36,17.77-16.13,37.38-16.13,58,0,80.4,87.44,152.72,195.3,152.72s195.29-72.32,195.29-152.72C462.65,260.61,456.89,241,446.52,223.23Z" style="fill:#263238"></path><path d="M461.19,270c0,77-87.44,146.26-195.29,146.26S70.6,347,70.6,270,158,130.54,265.9,130.54,461.19,193,461.19,270Z" style="fill:#fff"></path><path d="M265.9,416.72c-51.73,0-100.88-15.75-138.4-44.36C91,344.55,70.1,307.23,70.1,270,70.1,192.81,157.94,130,265.9,130S461.69,192.81,461.69,270c0,37.27-20.92,74.59-57.4,102.4C366.77,401,317.62,416.72,265.9,416.72Zm0-285.68C158.49,131,71.1,193.36,71.1,270c0,37,20.78,74,57,101.61,37.35,28.47,86.28,44.15,137.79,44.15S366.33,400,403.69,371.57c36.22-27.62,57-64.65,57-101.61C460.69,193.36,373.3,131,265.9,131Z" style="fill:#263238"></path><ellipse cx="265.9" cy="267.05" rx="194.13" ry="136.51" style="fill:#fff"></ellipse><path d="M265.9,404.07c-107.32,0-194.63-61.47-194.63-137S158.58,130,265.9,130s194.63,61.46,194.63,137S373.21,404.07,265.9,404.07Zm0-273c-106.77,0-193.63,61-193.63,136s86.86,136,193.63,136,193.63-61,193.63-136S372.66,131,265.9,131Z" style="fill:#263238"></path></g><g id="freepik--cake-pop-5--inject-426"><g style="opacity:0.4"><ellipse cx="250.96" cy="181.8" rx="51.09" ry="38.36" style="fill:#263238"></ellipse><path d="M251,220.65c-28.45,0-51.59-17.43-51.59-38.85s23.14-38.86,51.59-38.86,51.59,17.43,51.59,38.86S279.41,220.65,251,220.65Zm0-76.71c-27.89,0-50.59,17-50.59,37.86s22.7,37.85,50.59,37.85,50.59-17,50.59-37.85S278.86,143.94,251,143.94Z" style="fill:#263238"></path></g><path d="M229.19,148a4.18,4.18,0,0,1-1.3-3l.56-113.7a4.16,4.16,0,1,1,8.32,0L236.21,145a4.15,4.15,0,0,1-4.17,4.15A4.2,4.2,0,0,1,229.19,148Z" style="fill:#fff"></path><path d="M232.06,149.64h0a4.67,4.67,0,0,1-3.19-1.28h0a4.7,4.7,0,0,1-1.46-3.4L228,31.26a4.68,4.68,0,0,1,4.66-4.65h0a4.66,4.66,0,0,1,4.64,4.68L236.71,145a4.66,4.66,0,0,1-4.65,4.65Zm-2.52-2a3.62,3.62,0,0,0,2.5,1h0a3.61,3.61,0,0,0,2.58-1.07,3.57,3.57,0,0,0,1.08-2.58l.56-113.7a3.67,3.67,0,0,0-3.65-3.68h0A3.67,3.67,0,0,0,229,31.26L228.39,145a3.6,3.6,0,0,0,1.15,2.66Z" style="fill:#263238"></path><circle cx="230.77" cy="179.8" r="51.22" style="fill:#fff"></circle><path d="M230.77,231.52a51.73,51.73,0,1,1,51.72-51.72A51.79,51.79,0,0,1,230.77,231.52Zm0-102.45a50.73,50.73,0,1,0,50.72,50.73A50.79,50.79,0,0,0,230.77,129.07Z" style="fill:#263238"></path><path d="M228.57,156.11a2,2,0,0,1-1.52-.66l-7.19-7.74a2.08,2.08,0,1,1,3-2.83l7.18,7.74a2.07,2.07,0,0,1-.1,2.94A2.1,2.1,0,0,1,228.57,156.11Z" style="fill:#92E3A9"></path><path d="M228.57,156.61a2.59,2.59,0,0,1-1.89-.82l-7.18-7.74a2.57,2.57,0,0,1,.13-3.64,2.59,2.59,0,0,1,3.65.13l7.18,7.74a2.57,2.57,0,0,1-1.89,4.33Zm-7.18-11.89a1.58,1.58,0,0,0-1.08.42,1.55,1.55,0,0,0-.5,1.1,1.53,1.53,0,0,0,.42,1.13l7.18,7.74a1.59,1.59,0,0,0,2.74-1,1.53,1.53,0,0,0-.42-1.13l-7.19-7.74A1.58,1.58,0,0,0,221.39,144.72Z" style="fill:#263238"></path><path d="M203.15,175.46a2.08,2.08,0,0,1-.58-4.08l13.26-3.87a2.08,2.08,0,0,1,1.17,4l-13.27,3.87A2,2,0,0,1,203.15,175.46Z" style="fill:#263238"></path><path d="M203.15,176a2.58,2.58,0,0,1-.72-5.06L215.69,167a2.58,2.58,0,1,1,1.45,4.95l-13.27,3.87A2.57,2.57,0,0,1,203.15,176Zm13.25-8a1.59,1.59,0,0,0-.43.06l-13.26,3.87a1.58,1.58,0,0,0-1.08,2,1.61,1.61,0,0,0,2,1.07L216.86,171a1.58,1.58,0,0,0-.46-3.09Z" style="fill:#263238"></path><path d="M253.44,186h-.2a2.06,2.06,0,0,1-1.87-2.27L253,166.54a2.08,2.08,0,0,1,4.15.4l-1.66,17.13A2.08,2.08,0,0,1,253.44,186Z" style="fill:#92E3A9"></path><path d="M253.44,186.45h-.25a2.58,2.58,0,0,1-2.32-2.82l1.66-17.13a2.52,2.52,0,0,1,.93-1.75,2.62,2.62,0,0,1,1.88-.57,2.59,2.59,0,0,1,2.32,2.82L256,184.12A2.58,2.58,0,0,1,253.44,186.45Zm1.65-21.29a1.58,1.58,0,0,0-1.57,1.43l-1.66,17.13a1.6,1.6,0,0,0,1.42,1.73A1.55,1.55,0,0,0,255,184l1.66-17.13a1.59,1.59,0,0,0-1.42-1.73Z" style="fill:#263238"></path><path d="M237.41,200.87H224.7a2.08,2.08,0,1,1,0-4.16h12.71a2.08,2.08,0,1,1,0,4.16Z" style="fill:#92E3A9"></path><path d="M237.41,201.37H224.7a2.58,2.58,0,1,1,0-5.16h12.71a2.58,2.58,0,1,1,0,5.16Zm-12.71-4.16a1.58,1.58,0,1,0,0,3.16h12.71a1.58,1.58,0,1,0,0-3.16Z" style="fill:#263238"></path><path d="M228.57,224.08a2.08,2.08,0,0,1-.22-4.15l10.5-1.1a2.08,2.08,0,1,1,.44,4.14l-10.5,1.1Z" style="fill:#263238"></path><path d="M228.57,224.58a2.58,2.58,0,0,1-.27-5.14l10.5-1.11a2.58,2.58,0,1,1,.54,5.13l-10.5,1.11ZM239,219.32h-.15l-10.49,1.11a1.58,1.58,0,0,0-1.4,1.74,1.59,1.59,0,0,0,1.74,1.4l10.49-1.1a1.58,1.58,0,0,0-.19-3.15Z" style="fill:#263238"></path><path d="M198.18,208.06a2.07,2.07,0,0,1-1.72-.91L188.17,195a2.08,2.08,0,1,1,3.44-2.34l8.29,12.15a2.08,2.08,0,0,1-1.72,3.26Z" style="fill:#92E3A9"></path><path d="M198.18,208.56a2.56,2.56,0,0,1-2.13-1.13l-8.29-12.16a2.58,2.58,0,1,1,4.26-2.9l8.29,12.15a2.59,2.59,0,0,1-2.13,4Zm-8.29-16.32a1.58,1.58,0,0,0-1.31,2.47l8.29,12.16a1.63,1.63,0,0,0,2.2.41,1.57,1.57,0,0,0,.41-2.19l-8.29-12.16A1.56,1.56,0,0,0,189.89,192.24Z" style="fill:#263238"></path><path d="M277.2,168.82a2.07,2.07,0,0,1-1.43-.56l-9.39-8.84a2.08,2.08,0,1,1,2.85-3l9.39,8.84a2.08,2.08,0,0,1-1.42,3.59Z" style="fill:#263238"></path><path d="M277.2,169.32a2.58,2.58,0,0,1-1.77-.7L266,159.78a2.58,2.58,0,1,1,3.53-3.76l9.4,8.84a2.58,2.58,0,0,1-1.77,4.46Zm-9.4-13a1.58,1.58,0,0,0-1.08,2.73l9.4,8.84a1.62,1.62,0,0,0,2.23-.06,1.58,1.58,0,0,0-.07-2.24l-9.39-8.84A1.59,1.59,0,0,0,267.8,156.32Z" style="fill:#263238"></path><path d="M247.36,144.51a2.06,2.06,0,0,1-1.88-1.2l-4.43-9.39a2.08,2.08,0,0,1,3.77-1.77l4.42,9.39a2.08,2.08,0,0,1-1,2.77A2,2,0,0,1,247.36,144.51Z" style="fill:#263238"></path><path d="M247.36,145a2.6,2.6,0,0,1-2.34-1.48l-4.42-9.4a2.58,2.58,0,0,1,4.67-2.19l4.42,9.39a2.58,2.58,0,0,1-1.23,3.43A2.49,2.49,0,0,1,247.36,145Zm-4.43-13.55a1.48,1.48,0,0,0-.67.15,1.58,1.58,0,0,0-.75,2.1l4.42,9.39a1.62,1.62,0,0,0,2.1.76,1.58,1.58,0,0,0,.76-2.1l-4.42-9.4A1.58,1.58,0,0,0,242.93,131.46Z" style="fill:#263238"></path><path d="M201.49,154.46a2.09,2.09,0,0,1-1.73-3.24l7.74-11.6a2.08,2.08,0,1,1,3.46,2.31l-7.74,11.6A2.08,2.08,0,0,1,201.49,154.46Z" style="fill:#92E3A9"></path><path d="M201.49,155a2.54,2.54,0,0,1-1.43-.44,2.59,2.59,0,0,1-.71-3.58l7.73-11.6a2.58,2.58,0,1,1,4.3,2.86l-7.74,11.61A2.57,2.57,0,0,1,201.49,155Zm7.74-15.77a1.63,1.63,0,0,0-.31,0,1.59,1.59,0,0,0-1,.67l-7.73,11.61a1.57,1.57,0,0,0,.44,2.19,1.62,1.62,0,0,0,2.19-.44l7.73-11.6a1.58,1.58,0,0,0-1.31-2.46Z" style="fill:#263238"></path><path d="M266.15,210.27a1.87,1.87,0,0,1-.62-.1,2.07,2.07,0,0,1-1.37-2.6l5-16a2.08,2.08,0,1,1,4,1.23l-5,16A2.07,2.07,0,0,1,266.15,210.27Z" style="fill:#263238"></path><path d="M266.15,210.77a2.61,2.61,0,0,1-2.29-1.38,2.59,2.59,0,0,1-.18-2l5-16a2.59,2.59,0,0,1,3.23-1.7,2.58,2.58,0,0,1,1.7,3.23l-5,16A2.57,2.57,0,0,1,266.15,210.77Zm5-20.19a1.59,1.59,0,0,0-1.51,1.11l-5,16a1.59,1.59,0,0,0,1,2,1.62,1.62,0,0,0,2-1l5-16a1.61,1.61,0,0,0-.11-1.2,1.59,1.59,0,0,0-.93-.78A1.53,1.53,0,0,0,271.12,190.58Z" style="fill:#263238"></path><path d="M181.6,170.48a2.08,2.08,0,0,1-.59-4.08l9.4-2.76a2.08,2.08,0,0,1,1.17,4l-9.39,2.77A2.46,2.46,0,0,1,181.6,170.48Z" style="fill:#92E3A9"></path><path d="M181.6,171a2.58,2.58,0,0,1-.73-5.06l9.4-2.76a2.58,2.58,0,0,1,1.45,5l-9.39,2.77A2.57,2.57,0,0,1,181.6,171Zm9.39-6.92a1.61,1.61,0,0,0-.44.06l-9.4,2.76a1.6,1.6,0,0,0-1.07,2,1.63,1.63,0,0,0,2,1.07l9.39-2.77a1.57,1.57,0,0,0,1.07-2A1.59,1.59,0,0,0,191,164.06Z" style="fill:#263238"></path><path d="M235.2,153.35a2.08,2.08,0,0,1-2-1.42l-2.77-8.29a2.08,2.08,0,0,1,3.95-1.32l2.76,8.29a2.07,2.07,0,0,1-1.31,2.63A1.91,1.91,0,0,1,235.2,153.35Z" style="fill:#263238"></path><path d="M235.2,153.85a2.58,2.58,0,0,1-2.45-1.76L230,143.8a2.54,2.54,0,0,1,.14-2,2.58,2.58,0,0,1,4.76.34l2.76,8.28a2.59,2.59,0,0,1-1.63,3.27A2.56,2.56,0,0,1,235.2,153.85Zm-2.76-12.45a1.69,1.69,0,0,0-.5.08,1.57,1.57,0,0,0-1,2l2.76,8.29a1.61,1.61,0,0,0,2,1,1.58,1.58,0,0,0,1-2l-2.76-8.29A1.59,1.59,0,0,0,232.44,141.4Z" style="fill:#263238"></path></g><g id="freepik--cake-pop-4--inject-426"><g style="opacity:0.4"><ellipse cx="177.71" cy="278.44" rx="53.65" ry="34.98" style="fill:#263238"></ellipse><path d="M177.71,313.93c-29.86,0-54.15-15.92-54.15-35.49S147.85,243,177.71,243s54.15,15.92,54.15,35.48S207.57,313.93,177.71,313.93Zm0-70c-29.31,0-53.15,15.47-53.15,34.48s23.84,34.49,53.15,34.49,53.15-15.47,53.15-34.49S207,244,177.71,244Z" style="fill:#263238"></path></g><path d="M138.36,224a4.14,4.14,0,0,1-3-1.3l-114.91-122A4.16,4.16,0,0,1,26.48,95L141.39,217a4.17,4.17,0,0,1-.18,5.88A4.12,4.12,0,0,1,138.36,224Z" style="fill:#fff"></path><path d="M138.36,224.53a4.7,4.7,0,0,1-3.4-1.46l-114.9-122a4.66,4.66,0,1,1,6.78-6.39l114.91,122a4.65,4.65,0,0,1-3.39,7.85ZM23.45,94.2a3.65,3.65,0,0,0-2.66,6.17l114.9,122a3.66,3.66,0,1,0,5.33-5l-114.9-122A3.64,3.64,0,0,0,23.45,94.2Z" style="fill:#263238"></path><circle cx="161.46" cy="248.13" r="51.22" style="fill:#92E3A9"></circle><path d="M161.46,299.85a51.73,51.73,0,1,1,51.73-51.72A51.78,51.78,0,0,1,161.46,299.85Zm0-102.45a50.73,50.73,0,1,0,50.73,50.73A50.78,50.78,0,0,0,161.46,197.4Z" style="fill:#263238"></path><path d="M155.71,204a2.19,2.19,0,1,1-2.19-2.19A2.19,2.19,0,0,1,155.71,204Z" style="fill:#fff"></path><path d="M153.52,206.72a2.69,2.69,0,1,1,2.69-2.69A2.7,2.7,0,0,1,153.52,206.72Zm0-4.38a1.69,1.69,0,1,0,1.69,1.69A1.69,1.69,0,0,0,153.52,202.34Z" style="fill:#263238"></path><path d="M143.46,214.75a3.29,3.29,0,1,1-3.29-3.28A3.28,3.28,0,0,1,143.46,214.75Z" style="fill:#263238"></path><path d="M140.17,218.54a3.79,3.79,0,1,1,3.79-3.79A3.79,3.79,0,0,1,140.17,218.54Zm0-6.57a2.79,2.79,0,1,0,2.79,2.78A2.79,2.79,0,0,0,140.17,212Z" style="fill:#263238"></path><path d="M160.52,219.35a4.81,4.81,0,1,1-4.81-4.82A4.81,4.81,0,0,1,160.52,219.35Z" style="fill:#fff"></path><path d="M155.71,224.66a5.32,5.32,0,1,1,5.31-5.31A5.31,5.31,0,0,1,155.71,224.66Zm0-9.63a4.32,4.32,0,1,0,4.31,4.32A4.32,4.32,0,0,0,155.71,215Z" style="fill:#263238"></path><circle cx="174.31" cy="214.75" r="2.84" style="fill:#263238"></circle><path d="M174.31,218.1a3.35,3.35,0,1,1,3.34-3.35A3.35,3.35,0,0,1,174.31,218.1Zm0-5.69a2.35,2.35,0,1,0,2.34,2.34A2.34,2.34,0,0,0,174.31,212.41Z" style="fill:#263238"></path><path d="M178.91,232.7a4.16,4.16,0,1,1-4.16-4.16A4.16,4.16,0,0,1,178.91,232.7Z" style="fill:#fff"></path><path d="M174.75,237.35a4.66,4.66,0,1,1,4.66-4.65A4.66,4.66,0,0,1,174.75,237.35Zm0-8.31a3.66,3.66,0,1,0,3.66,3.66A3.66,3.66,0,0,0,174.75,229Z" style="fill:#263238"></path><circle cx="189.41" cy="226.35" r="3.06" style="fill:#fff"></circle><path d="M189.41,229.91a3.56,3.56,0,1,1,3.56-3.56A3.57,3.57,0,0,1,189.41,229.91Zm0-6.12a2.56,2.56,0,1,0,2.56,2.56A2.57,2.57,0,0,0,189.41,223.79Z" style="fill:#263238"></path><path d="M187.22,209.94a2,2,0,1,1-2-2A2,2,0,0,1,187.22,209.94Z" style="fill:#fff"></path><path d="M185.25,212.41a2.47,2.47,0,1,1,2.47-2.47A2.48,2.48,0,0,1,185.25,212.41Zm0-3.94a1.47,1.47,0,1,0,1.47,1.47A1.47,1.47,0,0,0,185.25,208.47Z" style="fill:#263238"></path><path d="M171.47,202.06a2.41,2.41,0,1,1-2.41-2.41A2.41,2.41,0,0,1,171.47,202.06Z" style="fill:#fff"></path><path d="M169.06,205a2.91,2.91,0,1,1,2.91-2.91A2.92,2.92,0,0,1,169.06,205Zm0-4.82a1.91,1.91,0,1,0,1.91,1.91A1.92,1.92,0,0,0,169.06,200.15Z" style="fill:#263238"></path><path d="M124.64,235.32a4.16,4.16,0,1,1-4.16-4.16A4.16,4.16,0,0,1,124.64,235.32Z" style="fill:#fff"></path><path d="M120.48,240a4.66,4.66,0,1,1,4.66-4.66A4.66,4.66,0,0,1,120.48,240Zm0-8.32a3.66,3.66,0,1,0,3.66,3.66A3.66,3.66,0,0,0,120.48,231.66Z" style="fill:#263238"></path><path d="M131.64,223.72a3.07,3.07,0,1,1-3.06-3.06A3.06,3.06,0,0,1,131.64,223.72Z" style="fill:#fff"></path><path d="M128.58,227.29a3.57,3.57,0,1,1,3.56-3.57A3.57,3.57,0,0,1,128.58,227.29Zm0-6.13a2.57,2.57,0,1,0,2.56,2.56A2.57,2.57,0,0,0,128.58,221.16Z" style="fill:#263238"></path><circle cx="142.58" cy="237.73" r="4.38" style="fill:#fff"></circle><path d="M142.58,242.6a4.88,4.88,0,1,1,4.88-4.87A4.87,4.87,0,0,1,142.58,242.6Zm0-8.75a3.88,3.88,0,1,0,3.88,3.88A3.88,3.88,0,0,0,142.58,233.85Z" style="fill:#263238"></path><path d="M137.33,254.8a2.19,2.19,0,1,1-2.19-2.19A2.19,2.19,0,0,1,137.33,254.8Z" style="fill:#fff"></path><path d="M135.14,257.48a2.69,2.69,0,1,1,2.69-2.68A2.69,2.69,0,0,1,135.14,257.48Zm0-4.37a1.69,1.69,0,1,0,1.69,1.69A1.69,1.69,0,0,0,135.14,253.11Z" style="fill:#263238"></path><path d="M122,255.45a3.28,3.28,0,1,1-3.28-3.28A3.28,3.28,0,0,1,122,255.45Z" style="fill:#fff"></path><path d="M118.73,259.23a3.78,3.78,0,1,1,3.78-3.78A3.78,3.78,0,0,1,118.73,259.23Zm0-6.56a2.78,2.78,0,1,0,2.78,2.78A2.79,2.79,0,0,0,118.73,252.67Z" style="fill:#263238"></path><circle cx="134.05" cy="272.52" r="4.16" style="fill:#fff"></circle><path d="M134.05,277.18a4.66,4.66,0,1,1,4.66-4.66A4.66,4.66,0,0,1,134.05,277.18Zm0-8.32a3.66,3.66,0,1,0,3.66,3.66A3.66,3.66,0,0,0,134.05,268.86Z" style="fill:#263238"></path><circle cx="159.87" cy="269.46" r="4.6" style="fill:#fff"></circle><path d="M159.87,274.55a5.1,5.1,0,1,1,5.09-5.09A5.1,5.1,0,0,1,159.87,274.55Zm0-9.19a4.1,4.1,0,1,0,4.09,4.1A4.11,4.11,0,0,0,159.87,265.36Z" style="fill:#263238"></path><circle cx="152.65" cy="283.68" r="3.06" style="fill:#fff"></circle><path d="M152.65,287.24a3.56,3.56,0,1,1,3.56-3.56A3.57,3.57,0,0,1,152.65,287.24Zm0-6.12a2.56,2.56,0,1,0,2.56,2.56A2.57,2.57,0,0,0,152.65,281.12Z" style="fill:#263238"></path><circle cx="171.68" cy="290.03" r="2.41" style="fill:#263238"></circle><path d="M171.68,292.93a2.91,2.91,0,1,1,2.91-2.9A2.9,2.9,0,0,1,171.68,292.93Zm0-4.81a1.91,1.91,0,1,0,1.91,1.91A1.9,1.9,0,0,0,171.68,288.12Z" style="fill:#263238"></path><path d="M190.28,287.4a2.41,2.41,0,1,1-2.4-2.41A2.4,2.4,0,0,1,190.28,287.4Z" style="fill:#263238"></path><path d="M187.88,290.31a2.91,2.91,0,1,1,2.9-2.91A2.91,2.91,0,0,1,187.88,290.31Zm0-4.82a1.91,1.91,0,1,0,1.9,1.91A1.92,1.92,0,0,0,187.88,285.49Z" style="fill:#263238"></path><circle cx="198.38" cy="272.96" r="1.53" style="fill:#fff"></circle><path d="M198.38,275a2,2,0,1,1,2-2A2,2,0,0,1,198.38,275Zm0-3.06a1,1,0,1,0,1,1A1,1,0,0,0,198.38,271.93Z" style="fill:#263238"></path><circle cx="182.41" cy="260.49" r="2.63" style="fill:#263238"></circle><path d="M182.41,263.61a3.13,3.13,0,1,1,3.12-3.12A3.13,3.13,0,0,1,182.41,263.61Zm0-5.25a2.13,2.13,0,1,0,2.12,2.13A2.13,2.13,0,0,0,182.41,258.36Z" style="fill:#263238"></path><circle cx="158.28" cy="242.49" r="5.64" style="fill:#fff"></circle><path d="M158.28,248.63a6.14,6.14,0,1,1,6.14-6.14A6.15,6.15,0,0,1,158.28,248.63Zm0-11.28a5.14,5.14,0,1,0,5.14,5.14A5.14,5.14,0,0,0,158.28,237.35Z" style="fill:#263238"></path><path d="M179.34,247.79a2.63,2.63,0,1,1-2.62-2.62A2.62,2.62,0,0,1,179.34,247.79Z" style="fill:#fff"></path><path d="M176.72,250.92a3.13,3.13,0,1,1,3.12-3.13A3.13,3.13,0,0,1,176.72,250.92Zm0-5.25a2.13,2.13,0,1,0,2.12,2.12A2.12,2.12,0,0,0,176.72,245.67Z" style="fill:#263238"></path><path d="M201.22,248.67a4.81,4.81,0,1,1-4.81-4.81A4.81,4.81,0,0,1,201.22,248.67Z" style="fill:#fff"></path><path d="M196.41,254a5.32,5.32,0,1,1,5.31-5.31A5.31,5.31,0,0,1,196.41,254Zm0-9.63a4.32,4.32,0,1,0,4.31,4.32A4.32,4.32,0,0,0,196.41,244.35Z" style="fill:#263238"></path><circle cx="202.1" cy="230.29" r="3.94" style="fill:#fff"></circle><path d="M202.1,234.73a4.44,4.44,0,1,1,4.44-4.44A4.44,4.44,0,0,1,202.1,234.73Zm0-7.88a3.44,3.44,0,1,0,3.44,3.44A3.44,3.44,0,0,0,202.1,226.85Z" style="fill:#263238"></path><circle cx="195.32" cy="213.44" r="1.53" style="fill:#263238"></circle><path d="M195.32,215.47a2,2,0,1,1,2-2A2,2,0,0,1,195.32,215.47Zm0-3.06a1,1,0,1,0,1,1A1,1,0,0,0,195.32,212.41Z" style="fill:#263238"></path><circle cx="183.28" cy="274.05" r="4.38" style="fill:#fff"></circle><path d="M183.28,278.93a4.88,4.88,0,1,1,4.88-4.88A4.88,4.88,0,0,1,183.28,278.93Zm0-8.75a3.88,3.88,0,1,0,3.88,3.87A3.87,3.87,0,0,0,183.28,270.18Z" style="fill:#263238"></path><circle cx="139.52" cy="289.81" r="4.38" style="fill:#fff"></circle><path d="M139.52,294.68a4.88,4.88,0,1,1,4.88-4.87A4.88,4.88,0,0,1,139.52,294.68Zm0-8.75a3.88,3.88,0,1,0,3.88,3.88A3.88,3.88,0,0,0,139.52,285.93Z" style="fill:#263238"></path><path d="M122.89,267.71a2.41,2.41,0,1,1-2.41-2.41A2.4,2.4,0,0,1,122.89,267.71Z" style="fill:#263238"></path><path d="M120.48,270.61a2.91,2.91,0,1,1,2.91-2.9A2.91,2.91,0,0,1,120.48,270.61Zm0-4.81a1.91,1.91,0,1,0,1.91,1.91A1.91,1.91,0,0,0,120.48,265.8Z" style="fill:#263238"></path><circle cx="149.37" cy="258.95" r="2.84" style="fill:#263238"></circle><path d="M149.37,262.3a3.35,3.35,0,1,1,3.34-3.35A3.35,3.35,0,0,1,149.37,262.3Zm0-5.69a2.35,2.35,0,1,0,2.34,2.34A2.35,2.35,0,0,0,149.37,256.61Z" style="fill:#263238"></path><path d="M212.24,260.5a3.5,3.5,0,1,1-3.5-3.5A3.5,3.5,0,0,1,212.24,260.5Z" style="fill:#263238"></path><path d="M208.74,264.5a4,4,0,1,1,4-4A4,4,0,0,1,208.74,264.5Zm0-7a3,3,0,1,0,3,3A3,3,0,0,0,208.74,257.5Z" style="fill:#263238"></path><path d="M212.6,241.89a2,2,0,1,1-2-2A2,2,0,0,1,212.6,241.89Z" style="fill:#fff"></path><path d="M210.63,244.35a2.47,2.47,0,1,1,2.47-2.46A2.47,2.47,0,0,1,210.63,244.35Zm0-3.93a1.47,1.47,0,1,0,1.47,1.47A1.47,1.47,0,0,0,210.63,240.42Z" style="fill:#263238"></path><path d="M140.39,203.16a2.63,2.63,0,1,1-2.62-2.63A2.62,2.62,0,0,1,140.39,203.16Z" style="fill:#fff"></path><path d="M137.77,206.28a3.13,3.13,0,1,1,3.12-3.12A3.13,3.13,0,0,1,137.77,206.28Zm0-5.25a2.13,2.13,0,1,0,2.12,2.13A2.13,2.13,0,0,0,137.77,201Z" style="fill:#263238"></path><path d="M121.14,220.44a2.41,2.41,0,1,1-2.41-2.41A2.41,2.41,0,0,1,121.14,220.44Z" style="fill:#263238"></path><path d="M118.73,223.35a2.91,2.91,0,1,1,2.91-2.91A2.92,2.92,0,0,1,118.73,223.35Zm0-4.81a1.91,1.91,0,1,0,1.91,1.9A1.91,1.91,0,0,0,118.73,218.54Z" style="fill:#263238"></path><circle cx="111.29" cy="249.33" r="2.84" style="fill:#fff"></circle><path d="M111.29,252.67a3.35,3.35,0,1,1,3.35-3.34A3.35,3.35,0,0,1,111.29,252.67Zm0-5.69a2.35,2.35,0,1,0,2.35,2.35A2.35,2.35,0,0,0,111.29,247Z" style="fill:#263238"></path><path d="M159.65,298.78a2,2,0,1,1-2-2A2,2,0,0,1,159.65,298.78Z" style="fill:#fff"></path><path d="M157.68,301.25a2.47,2.47,0,1,1,2.47-2.47A2.48,2.48,0,0,1,157.68,301.25Zm0-3.94a1.47,1.47,0,1,0,1.47,1.47A1.47,1.47,0,0,0,157.68,297.31Z" style="fill:#263238"></path><path d="M178.91,296.15a2,2,0,1,1-2-2A2,2,0,0,1,178.91,296.15Z" style="fill:#fff"></path><path d="M176.94,298.62a2.47,2.47,0,1,1,2.47-2.47A2.47,2.47,0,0,1,176.94,298.62Zm0-3.94a1.47,1.47,0,1,0,1.47,1.47A1.47,1.47,0,0,0,176.94,294.68Z" style="fill:#263238"></path><path d="M182.84,200.53a2.19,2.19,0,1,1-2.18-2.19A2.19,2.19,0,0,1,182.84,200.53Z" style="fill:#fff"></path><path d="M180.66,203.22a2.69,2.69,0,1,1,2.68-2.69A2.69,2.69,0,0,1,180.66,203.22Zm0-4.38a1.69,1.69,0,1,0,1.68,1.69A1.69,1.69,0,0,0,180.66,198.84Z" style="fill:#263238"></path></g><g id="freepik--cake-pop-3--inject-426"><g style="opacity:0.4"><ellipse cx="326.55" cy="295.88" rx="51.09" ry="29.2" style="fill:#263238"></ellipse><path d="M326.55,325.57c-28.45,0-51.59-13.32-51.59-29.69s23.14-29.7,51.59-29.7,51.59,13.32,51.59,29.7S355,325.57,326.55,325.57Zm0-58.39c-27.9,0-50.59,12.87-50.59,28.7s22.69,28.69,50.59,28.69,50.59-12.87,50.59-28.69S354.45,267.18,326.55,267.18Z" style="fill:#263238"></path></g><g style="opacity:0.4"><rect x="316.5" y="236.01" width="125.36" height="7" transform="matrix(0.54, -0.84, 0.84, 0.54, -26.59, 430.55)" style="fill:#263238"></rect><path d="M348.45,294.75a.5.5,0,0,1-.27-.08l-5.9-3.76a.51.51,0,0,1-.16-.7L409.5,184.5a.5.5,0,0,1,.31-.22.52.52,0,0,1,.38.07l5.9,3.76a.5.5,0,0,1,.15.69L348.87,294.51a.44.44,0,0,1-.31.22Zm-5.21-4.42,5.05,3.22,66.84-104.87-5.06-3.22Z" style="fill:#263238"></path></g><path d="M342.33,248a4.11,4.11,0,0,0,3.15-1L473.16,138.43a4.16,4.16,0,0,0-5.39-6.33L340.09,240.68a4.17,4.17,0,0,0-.47,5.87A4.12,4.12,0,0,0,342.33,248Z" style="fill:#fff"></path><path d="M342.78,248.51a4.35,4.35,0,0,1-.51,0h0a4.67,4.67,0,0,1-2.5-8.19L467.44,131.71a4.69,4.69,0,0,1,3.4-1.09,4.66,4.66,0,0,1,2.64,8.19L345.81,247.4A4.7,4.7,0,0,1,342.78,248.51ZM470.46,131.6a3.64,3.64,0,0,0-2.37.88L340.42,241.07a3.65,3.65,0,0,0,2,6.42h0a3.6,3.6,0,0,0,2.78-.85L472.83,138.05a3.66,3.66,0,0,0,.42-5.16,3.61,3.61,0,0,0-2.49-1.27Z" style="fill:#263238"></path><circle cx="316.71" cy="269.39" r="51.22" transform="translate(-97.72 302.85) rotate(-45)" style="fill:#92E3A9"></circle><path d="M316.81,321.11a49.31,49.31,0,0,1-5.81-.32,51.62,51.62,0,1,1,5.81.32Zm-.2-102.45a50.74,50.74,0,0,0-50.32,45.13h0a50.72,50.72,0,1,0,56-44.82A51.79,51.79,0,0,0,316.61,218.66ZM265.8,263.73h0Z" style="fill:#263238"></path><polygon points="291.58 258.09 287.79 263.49 290.09 269.68 283.77 267.74 278.6 271.85 278.49 265.24 272.99 261.58 279.24 259.44 281.01 253.08 284.98 258.36 291.58 258.09" style="fill:#263238"></polygon><path d="M278.6,272.35a.54.54,0,0,1-.22-.05.5.5,0,0,1-.28-.45l-.11-6.34L272.71,262a.5.5,0,0,1-.22-.48.51.51,0,0,1,.34-.41l6-2.05,1.7-6.11a.51.51,0,0,1,.39-.36.5.5,0,0,1,.49.19l3.81,5.07,6.34-.26a.5.5,0,0,1,.46.26.49.49,0,0,1,0,.52l-3.64,5.19,2.21,5.95a.52.52,0,0,1-.11.52.49.49,0,0,1-.51.13l-6.06-1.86-5,3.94A.51.51,0,0,1,278.6,272.35Zm-4.49-10.62,4.66,3.1a.5.5,0,0,1,.22.4l.09,5.6,4.38-3.48a.5.5,0,0,1,.46-.08l5.35,1.64-1.95-5.24a.47.47,0,0,1,.06-.46l3.21-4.58-5.59.23a.52.52,0,0,1-.42-.2l-3.36-4.47-1.5,5.39a.54.54,0,0,1-.32.34Z" style="fill:#263238"></path><polygon points="293.63 288.72 290.81 293.1 292.43 298.05 287.84 296.55 284.02 299.9 284.01 294.59 280.03 291.71 284.61 289.93 285.97 284.8 288.81 289 293.63 288.72" style="fill:#fff"></polygon><path d="M284,300.4a.46.46,0,0,1-.2,0,.5.5,0,0,1-.3-.45v-5l-3.77-2.73a.49.49,0,0,1-.2-.47.49.49,0,0,1,.31-.41l4.34-1.68,1.3-4.89a.5.5,0,0,1,.39-.36.49.49,0,0,1,.5.21l2.69,4,4.53-.27a.48.48,0,0,1,.46.25.49.49,0,0,1,0,.52l-2.69,4.18,1.54,4.72a.51.51,0,0,1-.63.64L288,297.12l-3.61,3.15A.46.46,0,0,1,284,300.4Zm-2.95-8.56,3.23,2.35a.49.49,0,0,1,.21.4v4.21l3-2.62a.49.49,0,0,1,.49-.1l3.65,1.19-1.32-4a.52.52,0,0,1,.06-.42l2.29-3.55-3.84.22a.49.49,0,0,1-.44-.21l-2.23-3.3-1.08,4.07a.51.51,0,0,1-.3.34Z" style="fill:#263238"></path><polygon points="302.11 237.65 296.95 238.36 294.24 242.81 292.39 238.35 287.37 237.63 291.39 234.17 290.99 229.27 295.32 231.59 300.1 229.29 298.76 234.18 302.11 237.65" style="fill:#fff"></polygon><path d="M294.24,243.31h0a.49.49,0,0,1-.42-.31L292,238.81l-4.74-.68a.51.51,0,0,1-.26-.88l3.83-3.29-.38-4.65a.5.5,0,0,1,.23-.46.52.52,0,0,1,.51,0l4.1,2.2,4.55-2.19a.5.5,0,0,1,.54.06.51.51,0,0,1,.16.52L299.32,234l3.15,3.27a.5.5,0,0,1-.29.84l-4.93.67-2.58,4.25A.5.5,0,0,1,294.24,243.31Zm-5.71-6,3.93.57a.5.5,0,0,1,.4.3l1.47,3.55,2.19-3.61a.53.53,0,0,1,.36-.24l4.19-.57-2.67-2.76a.5.5,0,0,1-.12-.48l1.05-3.84L295.54,232a.48.48,0,0,1-.45,0l-3.53-1.88.33,4a.5.5,0,0,1-.18.42Z" style="fill:#263238"></path><polygon points="361.53 275.5 359.8 280.41 362.52 284.85 357.71 284.46 354.77 288.6 353.53 283.44 348.99 281.56 353.04 278.76 353.17 273.46 356.91 276.89 361.53 275.5" style="fill:#fff"></polygon><path d="M354.77,289.1h-.09a.49.49,0,0,1-.39-.38l-1.19-4.91L348.8,282a.5.5,0,0,1-.3-.41.49.49,0,0,1,.21-.46l3.83-2.65.13-5.05A.5.5,0,0,1,353,273a.49.49,0,0,1,.53.09l3.53,3.24,4.35-1.31a.51.51,0,0,1,.5.13.5.5,0,0,1,.11.52l-1.65,4.68,2.6,4.24a.51.51,0,0,1,0,.53.49.49,0,0,1-.47.23L358,285l-2.77,3.91A.52.52,0,0,1,354.77,289.1ZM350,281.45l3.69,1.53a.51.51,0,0,1,.3.34l1,4.09,2.3-3.24a.53.53,0,0,1,.45-.21l3.83.32-2.21-3.61a.48.48,0,0,1,0-.42l1.4-4-3.68,1.11a.5.5,0,0,1-.48-.11l-2.93-2.69-.1,4.21a.51.51,0,0,1-.22.39Z" style="fill:#263238"></path><polygon points="353.14 236.47 351.41 241.38 354.13 245.82 349.32 245.43 346.38 249.56 345.14 244.41 340.6 242.52 344.65 239.73 344.78 234.43 348.52 237.86 353.14 236.47" style="fill:#263238"></polygon><path d="M346.38,250.07h-.09a.51.51,0,0,1-.39-.38l-1.19-4.91-4.3-1.78a.5.5,0,0,1-.3-.41.52.52,0,0,1,.21-.47l3.83-2.65.13-5a.52.52,0,0,1,.31-.45.5.5,0,0,1,.53.09l3.53,3.24L353,236a.5.5,0,0,1,.61.64L352,241.32l2.6,4.24a.49.49,0,0,1,0,.52.5.5,0,0,1-.47.24l-4.52-.37-2.78,3.9A.49.49,0,0,1,346.38,250.07Zm-4.74-7.66,3.69,1.54a.51.51,0,0,1,.3.34l1,4.09,2.31-3.24a.49.49,0,0,1,.44-.21l3.83.31-2.21-3.6a.53.53,0,0,1,0-.43l1.4-4-3.67,1.11a.51.51,0,0,1-.49-.11l-2.93-2.69-.1,4.2a.53.53,0,0,1-.22.4Z" style="fill:#263238"></path><polygon points="333.3 306.84 328.09 306.82 324.78 310.85 323.58 306.17 318.71 304.75 323.17 301.89 323.46 296.99 327.43 299.89 332.48 298.27 330.46 302.93 333.3 306.84" style="fill:#263238"></polygon><path d="M324.78,311.35l-.1,0a.5.5,0,0,1-.38-.36l-1.13-4.4-4.6-1.33a.52.52,0,0,1-.36-.41.5.5,0,0,1,.23-.5l4.25-2.72L323,297a.5.5,0,0,1,.8-.38l3.76,2.75,4.81-1.53a.48.48,0,0,1,.52.14.49.49,0,0,1,.09.53l-1.9,4.4,2.66,3.68a.5.5,0,0,1-.4.79h0l-5,0-3.15,3.84A.49.49,0,0,1,324.78,311.35Zm-4.88-6.77,3.82,1.11a.5.5,0,0,1,.34.36l1,3.72,2.68-3.27a.52.52,0,0,1,.39-.18h0l4.22,0-2.25-3.11a.51.51,0,0,1-.05-.49l1.57-3.65-4,1.27a.49.49,0,0,1-.45-.07l-3.22-2.36-.24,4a.5.5,0,0,1-.23.39Z" style="fill:#263238"></path><polygon points="329.5 235.67 323.86 239.15 323.53 245.78 318.47 241.49 312.07 243.22 314.58 237.09 310.95 231.53 317.57 232.03 321.73 226.86 323.3 233.31 329.5 235.67" style="fill:#fff"></polygon><path d="M323.53,246.28a.5.5,0,0,1-.33-.12L318.34,242l-6.14,1.67a.52.52,0,0,1-.51-.16.51.51,0,0,1-.09-.52l2.42-5.89-3.48-5.33a.51.51,0,0,1,0-.53A.5.5,0,0,1,311,231l6.35.47,4-5a.48.48,0,0,1,.5-.17.48.48,0,0,1,.37.37l1.51,6.18,6,2.27a.5.5,0,0,1,.08.89l-5.42,3.35L324,245.8a.52.52,0,0,1-.3.44A.79.79,0,0,1,323.53,246.28ZM318.47,241a.49.49,0,0,1,.32.12l4.29,3.63.28-5.61a.46.46,0,0,1,.23-.4l4.78-3-5.25-2a.52.52,0,0,1-.31-.35L321.48,228,318,232.34a.52.52,0,0,1-.43.19l-5.6-.42,3.07,4.7a.52.52,0,0,1,.05.47l-2.14,5.2,5.43-1.47A.27.27,0,0,1,318.47,241Z" style="fill:#263238"></path><polygon points="334.22 272.75 326.77 274.55 324.03 281.7 320.02 275.17 312.38 274.78 317.34 268.95 315.36 261.55 322.44 264.48 328.86 260.3 328.26 267.94 334.22 272.75" style="fill:#fff"></polygon><path d="M324,282.2a.49.49,0,0,1-.42-.24l-3.87-6.3-7.39-.38a.5.5,0,0,1-.35-.83l4.79-5.62-1.91-7.15a.47.47,0,0,1,.15-.5.49.49,0,0,1,.52-.09l6.83,2.82,6.2-4a.53.53,0,0,1,.53,0,.5.5,0,0,1,.24.47l-.57,7.37,5.75,4.65a.48.48,0,0,1,.17.5.5.5,0,0,1-.37.38L327.15,275l-2.65,6.91a.5.5,0,0,1-.42.32Zm-10.61-7.87,6.63.34a.52.52,0,0,1,.4.24l3.48,5.66,2.38-6.2a.5.5,0,0,1,.35-.31l6.45-1.56L328,268.33a.49.49,0,0,1-.18-.43l.51-6.63-5.57,3.62a.5.5,0,0,1-.46.05l-6.15-2.54,1.73,6.42a.49.49,0,0,1-.11.45Z" style="fill:#263238"></path></g><g id="freepik--cake-pop-2--inject-426"><g style="opacity:0.4"><rect x="240.36" y="211.87" width="136.32" height="7" transform="translate(-64.16 267.08) rotate(-42.82)" style="fill:#263238"></rect><path d="M260.9,264.76a.49.49,0,0,1-.37-.16l-4.76-5.13a.49.49,0,0,1-.13-.36.5.5,0,0,1,.16-.35l100-92.65a.5.5,0,0,1,.71,0l4.76,5.14a.47.47,0,0,1,.13.36.46.46,0,0,1-.16.34l-100,92.66A.5.5,0,0,1,260.9,264.76Zm-4-5.61,4.07,4.4,99.27-92-4.08-4.4Z" style="fill:#263238"></path></g><path d="M275.34,213.2a4.16,4.16,0,0,1,2-2.66l144.91-84.23a4.16,4.16,0,0,1,4.18,7.2L281.48,217.74a4.16,4.16,0,0,1-6.14-4.54Z" style="fill:#fff"></path><path d="M279.4,218.8a4.5,4.5,0,0,1-1.2-.16,4.65,4.65,0,0,1-3.35-5.56h0a4.67,4.67,0,0,1,2.2-3L422,125.88a4.66,4.66,0,1,1,4.68,8.06L281.73,218.17A4.61,4.61,0,0,1,279.4,218.8Zm144.89-92.55a3.61,3.61,0,0,0-1.83.5L277.55,211a3.66,3.66,0,0,0-1.72,2.34h0a3.65,3.65,0,0,0,5.4,4l144.91-84.22a3.66,3.66,0,0,0-1.85-6.83Zm-149,86.95h0Z" style="fill:#263238"></path><circle cx="246.63" cy="230.23" r="51.22" transform="matrix(0, -1, 1, 0, 15.28, 475.81)" style="fill:#263238"></circle><path d="M246.73,282a52.38,52.38,0,0,1-11.83-1.36A51.55,51.55,0,1,1,246.73,282Zm-.19-102.48a50.73,50.73,0,0,0-11.41,100.14h0a50.72,50.72,0,0,0,23-98.8A50.94,50.94,0,0,0,246.54,179.49Z" style="fill:#263238"></path><path d="M290.88,234.63a2.19,2.19,0,1,1,2.63-1.63A2.19,2.19,0,0,1,290.88,234.63Z" style="fill:#fff"></path><path d="M291.39,235.19a2.62,2.62,0,0,1-.62-.07h0a2.69,2.69,0,1,1,3.23-2,2.71,2.71,0,0,1-2.61,2.08Zm-.39-1a1.71,1.71,0,0,0,1.27-.21,1.67,1.67,0,0,0,.75-1.05,1.69,1.69,0,0,0-1.26-2,1.69,1.69,0,0,0-.76,3.29Z" style="fill:#263238"></path><path d="M283.22,220.27a3.29,3.29,0,1,1,3.94-2.46A3.29,3.29,0,0,1,283.22,220.27Z" style="fill:#92E3A9"></path><path d="M284,220.85a3.61,3.61,0,0,1-.86-.1h0a3.78,3.78,0,0,1-1.14-6.89,3.73,3.73,0,0,1,2.86-.47,3.78,3.78,0,0,1-.86,7.46Zm-.63-1.07a2.78,2.78,0,0,0,1.26-5.42,2.79,2.79,0,0,0-3.34,2.08,2.78,2.78,0,0,0,2.08,3.34Z" style="fill:#263238"></path><circle cx="275.97" cy="231.16" r="4.81" style="fill:#fff"></circle><path d="M276,236.47a5.08,5.08,0,0,1-1.22-.14h0a5.32,5.32,0,1,1,6.38-4,5.31,5.31,0,0,1-5.16,4.11Zm0-9.63a4.32,4.32,0,0,0-1,8.52h0a4.31,4.31,0,0,0,2-8.4A4.17,4.17,0,0,0,276,226.84Z" style="fill:#263238"></path><path d="M275.58,253.09A2.85,2.85,0,1,1,279,251,2.86,2.86,0,0,1,275.58,253.09Z" style="fill:#92E3A9"></path><path d="M276.23,253.66a3.37,3.37,0,0,1-.77-.09,3.35,3.35,0,0,1-2.5-4,3.4,3.4,0,0,1,1.5-2.09,3.34,3.34,0,0,1,3.53,5.68A3.27,3.27,0,0,1,276.23,253.66Zm0-5.69a2.4,2.4,0,0,0-1.24.35,2.35,2.35,0,0,0,2.48,4,2.4,2.4,0,0,0,1.05-1.46,2.36,2.36,0,0,0-1.76-2.82A2.33,2.33,0,0,0,276.22,248Z" style="fill:#263238"></path><path d="M257.7,250.72a4.16,4.16,0,1,1,5-3.11A4.16,4.16,0,0,1,257.7,250.72Z" style="fill:#fff"></path><path d="M258.66,251.33a4.88,4.88,0,0,1-1.07-.12,4.66,4.66,0,0,1-3.48-5.6,4.68,4.68,0,0,1,5.6-3.48,4.66,4.66,0,0,1,3.47,5.6,4.67,4.67,0,0,1-4.52,3.6Zm0-8.32a3.65,3.65,0,0,0-3.55,2.83,3.64,3.64,0,0,0,2.73,4.39,3.66,3.66,0,1,0,1.66-7.12A3.44,3.44,0,0,0,258.64,243Z" style="fill:#263238"></path><circle cx="261.5" cy="262.39" r="3.06" transform="translate(-25.54 28.22) rotate(-5.89)" style="fill:#fff"></circle><path d="M261.5,266a3.79,3.79,0,0,1-.81-.09,3.58,3.58,0,1,1,.81.09Zm0-6.13a2.58,2.58,0,0,0-1.35.39,2.53,2.53,0,0,0-1.14,1.6,2.48,2.48,0,0,0,.32,1.93,2.51,2.51,0,0,0,1.59,1.14h0a2.5,2.5,0,0,0,1.94-.32A2.54,2.54,0,0,0,264,263a2.59,2.59,0,0,0-.32-1.94,2.56,2.56,0,0,0-1.6-1.14A2.87,2.87,0,0,0,261.5,259.82Z" style="fill:#263238"></path><path d="M278,264a2,2,0,0,1,.9-3.84A2,2,0,1,1,278,264Z" style="fill:#fff"></path><path d="M278.43,264.53a2.67,2.67,0,0,1-.56-.06h0a2.48,2.48,0,0,1-1.85-3,2.43,2.43,0,0,1,1.1-1.53,2.47,2.47,0,1,1,1.31,4.56Zm-.34-1a1.47,1.47,0,1,0,.67-2.86,1.45,1.45,0,0,0-1.76,1.1,1.46,1.46,0,0,0,1.09,1.76Z" style="fill:#263238"></path><path d="M289.23,250.42a2.4,2.4,0,1,1,2.89-1.79A2.4,2.4,0,0,1,289.23,250.42Z" style="fill:#fff"></path><path d="M289.78,251a3,3,0,0,1-.66-.08,2.9,2.9,0,1,1,1.31-5.66,2.85,2.85,0,0,1,1.81,1.29,2.93,2.93,0,0,1,.37,2.2,2.92,2.92,0,0,1-2.83,2.25Zm0-4.82a1.88,1.88,0,0,0-1,.29,1.85,1.85,0,0,0-.85,1.19,1.91,1.91,0,0,0,1.42,2.29h0a1.91,1.91,0,0,0,1.44-.24,1.91,1.91,0,0,0,.61-2.63,1.93,1.93,0,0,0-1.18-.85A2.2,2.2,0,0,0,289.77,246.17Z" style="fill:#263238"></path><path d="M267.46,197.27a4.16,4.16,0,1,1,5-3.1A4.15,4.15,0,0,1,267.46,197.27Z" style="fill:#fff"></path><path d="M268.4,197.88a4.66,4.66,0,1,1,4.54-3.6A4.7,4.7,0,0,1,268.4,197.88Zm0-8.31a3.66,3.66,0,0,0-.83,7.22h0a3.66,3.66,0,0,0,1.66-7.13A3.91,3.91,0,0,0,268.4,189.57Z" style="fill:#263238"></path><circle cx="277.86" cy="203.74" r="3.06" transform="translate(-19.77 30.16) rotate(-6)" style="fill:#fff"></circle><path d="M277.86,207.3a3.72,3.72,0,0,1-.81-.09,3.57,3.57,0,0,1-2.22-1.59,3.53,3.53,0,0,1-.44-2.69,3.57,3.57,0,0,1,1.59-2.22,3.53,3.53,0,0,1,2.69-.44,3.56,3.56,0,0,1-.81,7Zm0-6.13a2.58,2.58,0,0,0-1.35.39,2.54,2.54,0,0,0-1.15,1.6,2.57,2.57,0,0,0,1.92,3.08h0a2.57,2.57,0,0,0,1.16-5A2.87,2.87,0,0,0,277.86,201.17Z" style="fill:#263238"></path><path d="M260.05,218.46a4.37,4.37,0,1,1,5.26-3.27A4.37,4.37,0,0,1,260.05,218.46Z" style="fill:#fff"></path><path d="M261,219.08a4.65,4.65,0,0,1-1.1-.13h0a4.86,4.86,0,1,1,1.1.13Zm0-8.76a3.88,3.88,0,0,0-.87,7.66h0a3.88,3.88,0,0,0,4.17-5.83,3.84,3.84,0,0,0-2.42-1.72A3.79,3.79,0,0,0,261,210.32Z" style="fill:#263238"></path><path d="M245.61,205.21a2.19,2.19,0,1,1,2.63-1.63A2.18,2.18,0,0,1,245.61,205.21Z" style="fill:#fff"></path><path d="M246.11,205.77a2.54,2.54,0,0,1-.61-.07,2.69,2.69,0,1,1,1.22-5.23,2.68,2.68,0,0,1-.61,5.3Zm0-4.37a1.68,1.68,0,0,0-1.64,1.3,1.65,1.65,0,0,0,.21,1.28,1.69,1.69,0,0,0,1,.75h0a1.71,1.71,0,0,0,1.27-.21,1.69,1.69,0,0,0-.51-3.08A1.64,1.64,0,0,0,246.11,201.4Z" style="fill:#263238"></path><path d="M248.45,190.15a3.29,3.29,0,1,1,3.94-2.45A3.28,3.28,0,0,1,248.45,190.15Z" style="fill:#fff"></path><path d="M249.2,190.73a3.55,3.55,0,0,1-.86-.1A3.72,3.72,0,0,1,246,189a3.79,3.79,0,1,1,5.21,1.21A3.73,3.73,0,0,1,249.2,190.73Zm0-6.56a2.78,2.78,0,0,0-.63,5.49,2.79,2.79,0,0,0,3.34-2.08,2.78,2.78,0,0,0-2.07-3.34A2.85,2.85,0,0,0,249.19,184.17Z" style="fill:#263238"></path><path d="M228.15,202.05a4.16,4.16,0,1,1,5-3.11A4.17,4.17,0,0,1,228.15,202.05Z" style="fill:#fff"></path><path d="M229.1,202.65a4.79,4.79,0,0,1-1.06-.12h0a4.66,4.66,0,1,1,1.06.12Zm0-8.31a3.65,3.65,0,0,0-3.56,2.83,3.66,3.66,0,0,0,2.74,4.39h0a3.66,3.66,0,0,0,1.66-7.13A4,4,0,0,0,229.09,194.34Z" style="fill:#263238"></path><path d="M225.18,228.31a4.59,4.59,0,1,1,5.52-3.43A4.58,4.58,0,0,1,225.18,228.31Z" style="fill:#fff"></path><path d="M226.23,228.94a5,5,0,0,1-1.16-.14h0a5.09,5.09,0,1,1,6.11-3.81,5,5,0,0,1-2.27,3.17A5,5,0,0,1,226.23,228.94Zm0-9.2a4.1,4.1,0,0,0-.93,8.09h0a4.1,4.1,0,0,0,1.86-8A4.22,4.22,0,0,0,226.22,219.74Z" style="fill:#263238"></path><path d="M213.31,216.56a3.06,3.06,0,1,1,3.68-2.29A3.07,3.07,0,0,1,213.31,216.56Z" style="fill:#fff"></path><path d="M214,217.14a3.72,3.72,0,0,1-.81-.09,3.58,3.58,0,1,1,.81.09Zm0-6.12a2.53,2.53,0,1,0,.58.06A2.86,2.86,0,0,0,214,211Z" style="fill:#263238"></path><path d="M203,233a2.4,2.4,0,1,1,2.89-1.79A2.41,2.41,0,0,1,203,233Z" style="fill:#92E3A9"></path><path d="M203.51,233.59a3,3,0,0,1-.66-.08h0a2.9,2.9,0,0,1-2.17-3.49,2.85,2.85,0,0,1,1.29-1.81,2.88,2.88,0,0,1,2.2-.36,2.91,2.91,0,0,1,.87,5.3A2.86,2.86,0,0,1,203.51,233.59Zm-.43-1.05a1.91,1.91,0,1,0-1.19-.85,1.91,1.91,0,0,0,1.19.85Z" style="fill:#263238"></path><path d="M201.85,249.39a2.41,2.41,0,1,1,2.89-1.8A2.41,2.41,0,0,1,201.85,249.39Z" style="fill:#92E3A9"></path><path d="M202.4,250a3.05,3.05,0,0,1-.67-.07,2.91,2.91,0,1,1,3.49-2.17,2.85,2.85,0,0,1-1.29,1.8A2.92,2.92,0,0,1,202.4,250Zm0-4.81a1.9,1.9,0,0,0-.43,3.76,1.87,1.87,0,0,0,1.44-.24,1.9,1.9,0,0,0-.57-3.47A1.65,1.65,0,0,0,202.39,245.14Z" style="fill:#263238"></path><path d="M213.73,262a1.53,1.53,0,1,1,1.84-1.14A1.53,1.53,0,0,1,213.73,262Z" style="fill:#fff"></path><path d="M214.08,262.58a1.88,1.88,0,0,1-.47-.05h0a2,2,0,0,1-1.26-.91,2,2,0,0,1,.65-2.79,2,2,0,0,1,2.15,3.45A2.06,2.06,0,0,1,214.08,262.58Zm0-3.06a1,1,0,0,0-1,.8,1,1,0,0,0,.13.78,1,1,0,0,0,.64.46h0a1,1,0,0,0,1.24-.77,1,1,0,0,0-.77-1.24A1,1,0,0,0,214.07,259.52Z" style="fill:#263238"></path><path d="M229.25,250.38a2.62,2.62,0,1,1,3.15-2A2.62,2.62,0,0,1,229.25,250.38Z" style="fill:#92E3A9"></path><path d="M229.85,251a3.36,3.36,0,0,1-.71-.08h0a3.13,3.13,0,1,1,.71.08Zm-.49-1.06A2.11,2.11,0,1,0,228,249a2.08,2.08,0,0,0,1.32.94Z" style="fill:#263238"></path><path d="M251.57,233.9a5.64,5.64,0,1,1,6.76-4.21A5.63,5.63,0,0,1,251.57,233.9Z" style="fill:#fff"></path><path d="M252.84,234.55a6.05,6.05,0,0,1-1.39-.16h0a6.14,6.14,0,1,1,1.39.16Zm-1.16-1.13a5.14,5.14,0,1,0-3.84-6.17,5.15,5.15,0,0,0,3.84,6.17Z" style="fill:#263238"></path><path d="M242.9,247.72a2.62,2.62,0,1,1,3.15-2A2.62,2.62,0,0,1,242.9,247.72Z" style="fill:#fff"></path><path d="M243.5,248.29a3.43,3.43,0,0,1-.71-.08h0a3.13,3.13,0,1,1,1.42-6.09,3.12,3.12,0,0,1,2.33,3.75A3.13,3.13,0,0,1,243.5,248.29Zm-.49-1.06a2.11,2.11,0,1,0-1.32-.94,2.13,2.13,0,0,0,1.32.94Z" style="fill:#263238"></path><path d="M237.08,268.83a4.81,4.81,0,1,1,5.78-3.59A4.8,4.8,0,0,1,237.08,268.83Z" style="fill:#fff"></path><path d="M238.19,269.46a5.64,5.64,0,0,1-1.22-.14h0a5.3,5.3,0,1,1,1.22.14Zm0-9.63a4.34,4.34,0,0,0-4.21,3.34,4.31,4.31,0,0,0,3.23,5.17h0a4.25,4.25,0,0,0,3.26-.53,4.32,4.32,0,0,0-1.3-7.87A4.75,4.75,0,0,0,238.18,259.83Z" style="fill:#263238"></path><path d="M253.89,277.69a3.94,3.94,0,1,1,4.73-2.94A3.94,3.94,0,0,1,253.89,277.69Z" style="fill:#fff"></path><path d="M254.8,278.29a4.43,4.43,0,0,1-1-.11,4.45,4.45,0,0,1-3.32-5.33,4.44,4.44,0,1,1,8.65,2,4.44,4.44,0,0,1-4.31,3.43Zm0-7.87a3.44,3.44,0,0,0-3.35,2.65,3.39,3.39,0,0,0,.43,2.6A3.36,3.36,0,0,0,254,277.2h0a3.33,3.33,0,0,0,2.59-.43,3.41,3.41,0,0,0,1.54-2.14,3.44,3.44,0,0,0-2.57-4.12A3,3,0,0,0,254.79,270.42Z" style="fill:#263238"></path><path d="M272.39,272.56a1.53,1.53,0,1,1,1.84-1.14A1.53,1.53,0,0,1,272.39,272.56Z" style="fill:#92E3A9"></path><path d="M272.74,273.1a1.88,1.88,0,0,1-.47-.05h0a2,2,0,0,1-1.26-.91,2,2,0,0,1-.25-1.53,2,2,0,1,1,3.05,2.19A2.06,2.06,0,0,1,272.74,273.1Zm0-3.06a1,1,0,0,0-1,.8,1,1,0,0,0,.13.78,1,1,0,0,0,.64.46h0a1,1,0,0,0,1.24-.77,1,1,0,0,0-.77-1.24Z" style="fill:#263238"></path><circle cx="216.43" cy="245.6" r="4.38" transform="translate(-36.13 453.87) rotate(-88.12)" style="fill:#fff"></circle><path d="M216.44,250.48a5.25,5.25,0,0,1-1.11-.13h0a4.88,4.88,0,0,1-3.64-5.86,4.87,4.87,0,1,1,4.75,6Zm-.89-1.11a3.88,3.88,0,0,0,4.66-2.89,3.87,3.87,0,0,0-2.9-4.66,3.85,3.85,0,0,0-2.92.49,3.81,3.81,0,0,0-1.73,2.41,3.87,3.87,0,0,0,2.89,4.65Z" style="fill:#263238"></path><path d="M210,203.66a4.37,4.37,0,1,1,5.25-3.26A4.36,4.36,0,0,1,210,203.66Z" style="fill:#fff"></path><path d="M211,204.28a4.76,4.76,0,0,1-1.12-.13h0a4.85,4.85,0,1,1,1.12.13Zm0-8.75a3.88,3.88,0,0,0-.88,7.65h0a3.87,3.87,0,0,0,2.93-.49,3.79,3.79,0,0,0,1.72-2.41,3.87,3.87,0,0,0-3.77-4.75Z" style="fill:#263238"></path><path d="M236.32,188.22a2.41,2.41,0,1,1,2.89-1.8A2.41,2.41,0,0,1,236.32,188.22Z" style="fill:#92E3A9"></path><path d="M236.86,188.78a3,3,0,0,1-.66-.07h0a2.94,2.94,0,1,1,.66.07Zm-.43-1.05a1.91,1.91,0,0,0,1.44-.23,2,2,0,0,0,.85-1.19A1.91,1.91,0,0,0,237.3,184a1.91,1.91,0,0,0-2.29,1.42,1.91,1.91,0,0,0,1.42,2.29Z" style="fill:#263238"></path><path d="M238.19,218.76a2.84,2.84,0,1,1,3.41-2.12A2.84,2.84,0,0,1,238.19,218.76Z" style="fill:#92E3A9"></path><path d="M238.83,219.34a3.2,3.2,0,0,1-.75-.09h0a3.32,3.32,0,1,1,.75.09Zm-.53-1.06a2.35,2.35,0,1,0-1.75-2.82,2.36,2.36,0,0,0,1.75,2.82Z" style="fill:#263238"></path><path d="M223.06,276.88a3.5,3.5,0,1,1,4.21-2.62A3.5,3.5,0,0,1,223.06,276.88Z" style="fill:#92E3A9"></path><path d="M223.86,277.47a4,4,0,0,1-.91-.11,4,4,0,0,1-3-4.8,4,4,0,1,1,3.9,4.91Zm0-7a3,3,0,0,0-2.92,2.32,2.94,2.94,0,0,0,.37,2.26,3,3,0,0,0,5.47-.9,3,3,0,0,0-2.24-3.61A3.21,3.21,0,0,0,223.86,270.47Z" style="fill:#263238"></path><path d="M241.11,281.45a2,2,0,1,1,2.36-1.47A2,2,0,0,1,241.11,281.45Z" style="fill:#fff"></path><path d="M241.55,282a2.57,2.57,0,0,1-.55-.06h0a2.47,2.47,0,1,1,2.65-3.71,2.44,2.44,0,0,1,.31,1.86A2.47,2.47,0,0,1,241.55,282Zm-.33-1a1.48,1.48,0,0,0,1.77-1.1,1.49,1.49,0,0,0-1.1-1.77,1.47,1.47,0,0,0-.67,2.87Z" style="fill:#263238"></path><path d="M295.21,219.91a2.62,2.62,0,1,1,3.16-2A2.62,2.62,0,0,1,295.21,219.91Z" style="fill:#fff"></path><path d="M295.81,220.48a2.92,2.92,0,0,1-.71-.08,3.15,3.15,0,1,1,.71.08Zm0-5.25a2.13,2.13,0,0,0-.48,4.2,2.1,2.1,0,0,0,1.6-.27,2.12,2.12,0,0,0-.64-3.87A2,2,0,0,0,295.81,215.23Z" style="fill:#263238"></path><path d="M282.75,197.24a2.41,2.41,0,1,1,2.89-1.8A2.41,2.41,0,0,1,282.75,197.24Z" style="fill:#92E3A9"></path><path d="M283.29,197.8a3,3,0,0,1-.66-.07h0a2.92,2.92,0,0,1-1.81-1.3,2.88,2.88,0,0,1-.36-2.2,2.91,2.91,0,0,1,5.3-.87,2.86,2.86,0,0,1,.36,2.19A2.91,2.91,0,0,1,283.29,197.8Zm-.43-1.05a1.9,1.9,0,0,0,2.05-2.86,1.85,1.85,0,0,0-1.19-.85,1.9,1.9,0,1,0-.86,3.71Z" style="fill:#263238"></path><path d="M256.2,183.87a2.84,2.84,0,1,1,3.42-2.13A2.84,2.84,0,0,1,256.2,183.87Z" style="fill:#fff"></path><path d="M256.85,184.44a3.29,3.29,0,0,1-.76-.09h0a3.34,3.34,0,0,1-2.5-4,3.35,3.35,0,0,1,6.52,1.51A3.35,3.35,0,0,1,256.85,184.44Zm-.53-1.06a2.35,2.35,0,1,0-1.75-2.82,2.34,2.34,0,0,0,1.75,2.82Z" style="fill:#263238"></path><path d="M197.71,217a2,2,0,1,1,2.37-1.47A2,2,0,0,1,197.71,217Z" style="fill:#fff"></path><path d="M198.17,217.52a2.76,2.76,0,0,1-.57-.06h0a2.48,2.48,0,0,1-1.84-3,2.47,2.47,0,1,1,2.41,3Zm0-3.94a1.5,1.5,0,0,0-1.43,1.14,1.48,1.48,0,0,0,1.1,1.77h0a1.5,1.5,0,0,0,1.11-.19,1.45,1.45,0,0,0,.65-.91,1.48,1.48,0,0,0-1.09-1.77A2.09,2.09,0,0,0,198.16,213.58Z" style="fill:#263238"></path><path d="M195.9,236.32a2,2,0,1,1,2.37-1.47A2,2,0,0,1,195.9,236.32Z" style="fill:#fff"></path><path d="M196.35,236.87a2.74,2.74,0,0,1-.56-.06h0a2.47,2.47,0,0,1-.74-4.5,2.44,2.44,0,0,1,1.86-.31,2.47,2.47,0,0,1,1.54,1.1,2.43,2.43,0,0,1,.3,1.86A2.46,2.46,0,0,1,196.35,236.87Zm-.33-1a1.47,1.47,0,0,0,1.76-1.1,1.47,1.47,0,1,0-2.86-.67,1.48,1.48,0,0,0,1.1,1.77Z" style="fill:#263238"></path><path d="M288.14,261.85a2.19,2.19,0,1,1,2.63-1.63A2.19,2.19,0,0,1,288.14,261.85Z" style="fill:#fff"></path><path d="M288.64,262.41a2.48,2.48,0,0,1-.61-.07h0a2.68,2.68,0,0,1-1.68-1.2,2.63,2.63,0,0,1-.33-2,2.69,2.69,0,1,1,2.62,3.3Zm0-4.38a1.69,1.69,0,0,0-1.64,1.31,1.66,1.66,0,0,0,.21,1.27,1.69,1.69,0,0,0,1.05.76h0a1.69,1.69,0,0,0,1.82-2.54,1.68,1.68,0,0,0-1.05-.75A1.74,1.74,0,0,0,288.63,258Z" style="fill:#263238"></path></g><g id="freepik--cake-pop-1--inject-426"><g style="opacity:0.4"><path d="M435.06,320.66a3.51,3.51,0,0,0-3.9-3l-129.63,16c-8.67-9.06-25.51-15.21-44.86-15.21-28.21,0-51.09,13.07-51.09,29.2s22.88,29.2,51.09,29.2,51.09-13.08,51.09-29.2a17.66,17.66,0,0,0-1.7-7.49l126-15.58A3.5,3.5,0,0,0,435.06,320.66Z" style="fill:#263238"></path><path d="M256.67,377.34c-28.45,0-51.59-13.33-51.59-29.7s23.14-29.7,51.59-29.7c18.7,0,35.93,5.81,45,15.19l129.39-16a4,4,0,0,1,4.46,3.48h0a4,4,0,0,1-3.48,4.46l-125.29,15.5a18,18,0,0,1,1.47,7.08C308.26,364,285.12,377.34,256.67,377.34Zm0-58.4c-27.89,0-50.59,12.87-50.59,28.7s22.7,28.7,50.59,28.7,50.59-12.88,50.59-28.7a17.06,17.06,0,0,0-1.66-7.28.53.53,0,0,1,0-.46.51.51,0,0,1,.38-.25l126-15.58a3,3,0,0,0,2.61-3.34h0a3,3,0,0,0-3.35-2.61l-129.63,16a.51.51,0,0,1-.42-.15C292.28,324.71,275.23,318.94,256.67,318.94Z" style="fill:#263238"></path></g><path d="M268.82,325.68a4.12,4.12,0,0,0,3.05,1.27l167.59-2.53a4.16,4.16,0,0,0-.13-8.32l-167.59,2.53a4.16,4.16,0,0,0-2.92,7.05Z" style="fill:#fff"></path><path d="M271.81,327.45a4.7,4.7,0,0,1-3.35-1.42,4.58,4.58,0,0,1-1.31-3.17,4.67,4.67,0,0,1,4.59-4.73l167.58-2.53h.08a4.66,4.66,0,0,1,.06,9.32l-167.58,2.53ZM439.4,316.6h-.06l-167.59,2.53a3.66,3.66,0,0,0-2.57,6.21h0a3.71,3.71,0,0,0,2.68,1.11l167.59-2.53a3.66,3.66,0,0,0-.05-7.32Z" style="fill:#263238"></path><circle cx="235.36" cy="321.7" r="51.22" transform="translate(-140.72 453.8) rotate(-73.16)" style="fill:#263238"></circle><path d="M235.38,373.4a51.7,51.7,0,1,1,34.69-13.35A51.59,51.59,0,0,1,235.38,373.4ZM235.3,271a50.34,50.34,0,0,0-34,13.12h0A50.71,50.71,0,1,0,237.88,271Q236.59,271,235.3,271ZM201,283.73h0Z" style="fill:#263238"></path><path d="M200.3,284.38a50.93,50.93,0,0,0-4,4.2c0,9.13,0,20.44.08,31.76.12,16.07.34,27.34.62,35.29l.38.45c1.21,1.33,2.48,2.59,3.79,3.77C200.42,342.45,200.22,310.8,200.3,284.38Z" style="fill:#fff"></path><path d="M201.17,360.35a.51.51,0,0,1-.33-.13c-1.34-1.21-2.63-2.49-3.83-3.81l-.22-.26-.17-.19a.52.52,0,0,1-.12-.31c-.3-8.64-.51-20.19-.62-35.3-.07-9.58-.1-20.27-.08-31.77a.47.47,0,0,1,.12-.32,54,54,0,0,1,4-4.25.5.5,0,0,1,.84.37c-.09,32.37.23,60.57.87,75.45a.49.49,0,0,1-.29.47A.5.5,0,0,1,201.17,360.35Zm-3.68-4.91.06.07.2.23c.91,1,1.87,2,2.87,2.92-.6-15-.9-42.07-.82-73.1-1.05,1-2.05,2.1-3,3.2,0,11.43,0,22.05.08,31.58C197,335.35,197.19,346.83,197.49,355.44Z" style="fill:#263238"></path><path d="M274.12,288.24c-.26-.3-.51-.61-.78-.91-1-1.06-2-2.06-3-3-1.4,25-3.13,54.28-4.53,75.2-.06-1.53-.12-3.07-.19-4.62-1.49-36.8-2.69-62.14-4-77.18-1.37-.82-2.78-1.56-4.2-2.24,1.78,19.22,3.3,56.77,4.23,79.58.15,3.81.29,7.26.42,10.38a52.28,52.28,0,0,0,7.69-5.74.46.46,0,0,1,.07-.07c.55-8.15,1.17-18,1.86-29.43C272.61,314.78,273.5,299.29,274.12,288.24Z" style="fill:#fff"></path><path d="M262.05,365.92a.46.46,0,0,1-.23-.06.52.52,0,0,1-.27-.42l-.42-10.35c-.92-22.59-2.45-60.35-4.23-79.59a.48.48,0,0,1,.21-.45.5.5,0,0,1,.5,0c1.47.7,2.89,1.46,4.24,2.26a.47.47,0,0,1,.24.38c1.31,14.76,2.49,39.63,3.84,72.42,1.14-17.82,2.53-41.16,3.91-65.79a.5.5,0,0,1,.84-.34c1.15,1.07,2.14,2.07,3,3.05.18.2.35.41.52.61l.27.32a.46.46,0,0,1,.12.35c-.59,10.46-1.5,26.23-2.45,41.94-.69,11.36-1.31,21.26-1.86,29.43a.46.46,0,0,1-.16.33l-.08.08a51.69,51.69,0,0,1-7.76,5.79A.5.5,0,0,1,262.05,365.92ZM258,276.3c1.74,19.51,3.24,56.49,4.15,78.72l.39,9.52a52.5,52.5,0,0,0,6.81-5.16c.54-8.13,1.16-18,1.84-29.23.95-15.61,1.85-31.27,2.44-41.73l-.14-.17c-.17-.2-.33-.4-.51-.59-.66-.73-1.38-1.47-2.18-2.25-1.62,28.85-3.24,55.81-4.47,74.12a.51.51,0,0,1-.5.47h0a.51.51,0,0,1-.49-.48l-.19-4.62c-1.41-34.95-2.64-61.42-4-76.9C260.11,277.4,259.06,276.83,258,276.3Z" style="fill:#263238"></path><path d="M255.17,274.46c-1.24-.52-2.5-1-3.78-1.4-1.87,8.73-4.5,23.44-8.72,48.29-3.1,18.27-6.74,39.73-9.37,51.53,1.36.05,2.72.05,4.09,0,2-8.95,4.73-24.37,9.23-50.86C249.43,305.48,252.69,286.23,255.17,274.46Z" style="fill:#fff"></path><path d="M235.42,373.42c-.71,0-1.43,0-2.14,0a.51.51,0,0,1-.38-.2.51.51,0,0,1-.09-.41c2.63-11.8,6.21-32.89,9.37-51.5,4.48-26.41,6.93-39.95,8.72-48.31a.51.51,0,0,1,.24-.33.54.54,0,0,1,.41-.05c1.32.44,2.6.92,3.82,1.42a.51.51,0,0,1,.29.57c-2.48,11.77-5.7,30.77-8.55,47.54-4.86,28.64-7.36,42.43-9.23,50.88a.51.51,0,0,1-.47.39C236.75,373.41,236.09,373.42,235.42,373.42Zm-1.5-1c1,0,2.05,0,3.06,0,1.86-8.46,4.36-22.25,9.14-50.45,2.82-16.58,6-35.35,8.48-47.17-.91-.37-1.86-.73-2.84-1.06-1.78,8.39-4.21,21.9-8.59,47.73C240.06,339.75,236.54,360.47,233.92,372.4Z" style="fill:#263238"></path><path d="M205.15,363.08c1.11-7.84,2.61-20.74,5-42.12,1.66-15,3.67-33.22,5.46-46.51-1.45.61-2.89,1.29-4.3,2-1.31,10-2.94,24.14-5.13,44-1.56,14.07-3.23,29.27-4.62,39.64C202.7,361.19,203.91,362.17,205.15,363.08Z" style="fill:#fff"></path><path d="M205.15,363.58a.45.45,0,0,1-.29-.1c-1.21-.88-2.44-1.88-3.66-3a.47.47,0,0,1-.16-.44c1.38-10.35,3-25.22,4.61-39.6,2.37-21.51,3.9-34.68,5.13-44.07a.48.48,0,0,1,.26-.37c1.38-.74,2.84-1.43,4.35-2.06a.5.5,0,0,1,.5.06.52.52,0,0,1,.19.47c-1.8,13.3-3.83,31.7-5.46,46.49-2.48,22.45-3.92,34.66-5,42.14a.51.51,0,0,1-.3.39A.48.48,0,0,1,205.15,363.58ZM202.06,360c.9.79,1.81,1.53,2.71,2.21,1-7.53,2.47-19.65,4.85-41.27,1.6-14.47,3.58-32.4,5.35-45.64-1.11.48-2.2,1-3.23,1.55-1.22,9.36-2.75,22.48-5.1,43.76C205.07,334.86,203.44,349.61,202.06,360Z" style="fill:#263238"></path><path d="M235.35,313.68c1.32-21.07,2.07-34.51,2.32-43.14-1.33-.06-2.67-.06-4,0-.33,11.34-1.39,28.24-2.31,42.91-1.41,22.52-2.85,45.61-2.75,59,1.33.17,2.66.31,4,.38C232.48,359.63,234,335.53,235.35,313.68Z" style="fill:#fff"></path><path d="M232.6,373.35h0c-1.28-.07-2.64-.2-4-.39a.51.51,0,0,1-.44-.49c-.1-13.43,1.35-36.61,2.75-59,.93-14.82,2-31.57,2.31-42.94a.5.5,0,0,1,.48-.48c1.43,0,2.75,0,4,0a.49.49,0,0,1,.48.51c-.23,8-.9,20.54-2.32,43.16h0c-1.34,21.52-2.87,45.92-2.75,59.13a.48.48,0,0,1-.15.37A.5.5,0,0,1,232.6,373.35ZM229.11,372c1,.13,2,.22,3,.29-.08-13.37,1.42-37.42,2.75-58.67,1.39-22.15,2.06-34.6,2.31-42.63-1,0-2,0-3,0-.36,11.38-1.39,27.88-2.3,42.46C230.47,335.66,229,358.57,229.11,372Zm6.24-58.35h0Z" style="fill:#263238"></path><path d="M222.14,363c1.18-9.17,2.54-21.57,4-34.71,2-18.28,4.7-43,7-57.72-1.37.06-2.73.18-4.09.35-2,12.6-4.2,32.26-6.9,56.93-1.25,11.4-2.58,23.6-3.76,33,.16-10.94.71-25.94,1.26-40.65.58-15.69,1.17-31.91,1.34-44.17,0-1.22,0-2.36,0-3.45-1.35.4-2.69.86-4,1.37-.13,13.14-.8,31.23-1.35,46.1-.82,22.22-1.38,38.68-1.28,48.43a51,51,0,0,0,6.68,2.46C221.37,368.75,221.74,366.13,222.14,363Z" style="fill:#fff"></path><path d="M221,371.38a.36.36,0,0,1-.14,0,51.56,51.56,0,0,1-6.74-2.48.5.5,0,0,1-.3-.45c-.1-10,.49-27.09,1.28-48.45.54-14.7,1.22-33,1.35-46.1a.51.51,0,0,1,.32-.46c1.43-.55,2.75-1,4.06-1.38a.53.53,0,0,1,.44.08.51.51,0,0,1,.2.41c0,1.09,0,2.23,0,3.45-.17,12.27-.76,28.49-1.34,44.18-.39,10.44-.78,21.13-1,30.38.82-7.18,1.69-15.07,2.53-22.78,2.57-23.48,4.86-44,6.91-57a.5.5,0,0,1,.43-.42c1.49-.18,2.84-.29,4.13-.35a.52.52,0,0,1,.39.17.47.47,0,0,1,.12.41c-2.31,14.72-5,39.56-7,57.69-1.44,13.14-2.79,25.55-4,34.73h0c-.41,3.19-.77,5.79-1.1,7.93a.56.56,0,0,1-.23.35A.5.5,0,0,1,221,371.38Zm-6.18-3.28a52.12,52.12,0,0,0,5.77,2.14c.31-2,.64-4.43,1-7.34,1.17-9.17,2.53-21.57,4-34.71,1.95-17.89,4.62-42.31,6.92-57.13-1,.06-2,.15-3.06.27-2,13-4.3,33.3-6.85,56.54-1.26,11.59-2.57,23.58-3.75,33a.5.5,0,0,1-.53.44.51.51,0,0,1-.47-.51c.16-11,.72-26.06,1.26-40.66.58-15.68,1.17-31.89,1.34-44.15,0-1,0-1.89,0-2.77-1,.3-2,.64-3,1-.15,13.12-.81,31.21-1.35,45.76C215.36,341.13,214.77,358.11,214.86,368.1Zm7.28-5.14h0Z" style="fill:#263238"></path></g><g id="freepik--Crumbs--inject-426"><circle cx="359.63" cy="360.55" r="4.99" style="fill:#92E3A9"></circle><path d="M359.63,366.05a5.5,5.5,0,1,1,5.49-5.5A5.5,5.5,0,0,1,359.63,366.05Zm0-10a4.5,4.5,0,1,0,4.49,4.49A4.5,4.5,0,0,0,359.63,356.06Z" style="fill:#263238"></path><path d="M404.57,352.49a3.84,3.84,0,1,1-3.84-3.84A3.84,3.84,0,0,1,404.57,352.49Z" style="fill:#263238"></path><path d="M400.73,356.83a4.34,4.34,0,1,1,4.34-4.34A4.34,4.34,0,0,1,400.73,356.83Zm0-7.68a3.34,3.34,0,1,0,3.34,3.34A3.34,3.34,0,0,0,400.73,349.15Z" style="fill:#263238"></path><path d="M320.07,380.53a4.23,4.23,0,1,1-4.23-4.23A4.22,4.22,0,0,1,320.07,380.53Z" style="fill:#263238"></path><path d="M315.84,385.25a4.73,4.73,0,1,1,4.73-4.72A4.73,4.73,0,0,1,315.84,385.25Zm0-8.45a3.73,3.73,0,1,0,3.73,3.73A3.73,3.73,0,0,0,315.84,376.8Z" style="fill:#263238"></path><path d="M419.93,269.14a2.69,2.69,0,1,1-2.69-2.69A2.68,2.68,0,0,1,419.93,269.14Z" style="fill:#263238"></path><path d="M417.24,272.33a3.19,3.19,0,1,1,3.19-3.19A3.19,3.19,0,0,1,417.24,272.33Zm0-5.38a2.19,2.19,0,1,0,2.19,2.19A2.2,2.2,0,0,0,417.24,267Z" style="fill:#263238"></path><path d="M399.19,282.59a3.84,3.84,0,1,1-3.84-3.85A3.84,3.84,0,0,1,399.19,282.59Z" style="fill:#92E3A9"></path><path d="M395.35,286.93a4.35,4.35,0,1,1,4.34-4.35A4.35,4.35,0,0,1,395.35,286.93Zm0-7.69a3.35,3.35,0,1,0,3.34,3.34A3.35,3.35,0,0,0,395.35,279.24Z" style="fill:#263238"></path><circle cx="330.44" cy="452.35" r="4.99" style="fill:#fff"></circle><path d="M330.44,457.84a5.5,5.5,0,1,1,5.49-5.49A5.49,5.49,0,0,1,330.44,457.84Zm0-10a4.5,4.5,0,1,0,4.49,4.5A4.5,4.5,0,0,0,330.44,447.85Z" style="fill:#263238"></path><circle cx="336.97" cy="438.91" r="3.46" style="fill:#92E3A9"></circle><path d="M337,442.86a4,4,0,1,1,4-3.95A4,4,0,0,1,337,442.86Zm0-6.91a3,3,0,1,0,3,3A3,3,0,0,0,337,436Z" style="fill:#263238"></path><path d="M291.65,462a4.23,4.23,0,1,1-4.23-4.23A4.22,4.22,0,0,1,291.65,462Z" style="fill:#263238"></path><path d="M287.42,466.67a4.73,4.73,0,1,1,4.73-4.72A4.72,4.72,0,0,1,287.42,466.67Zm0-8.45a3.73,3.73,0,1,0,3.73,3.73A3.73,3.73,0,0,0,287.42,458.22Z" style="fill:#263238"></path><circle cx="421.08" cy="397.42" r="3.46" style="fill:#92E3A9"></circle><path d="M421.08,401.38a4,4,0,1,1,4-4A4,4,0,0,1,421.08,401.38Zm0-6.91a3,3,0,1,0,3,2.95A2.95,2.95,0,0,0,421.08,394.47Z" style="fill:#263238"></path><circle cx="147.23" cy="355.56" r="3.07" style="fill:#263238"></circle><path d="M147.23,359.13a3.57,3.57,0,1,1,3.58-3.57A3.57,3.57,0,0,1,147.23,359.13Zm0-6.14a2.57,2.57,0,1,0,2.58,2.57A2.58,2.58,0,0,0,147.23,353Z" style="fill:#263238"></path><path d="M78.1,407.79a4.61,4.61,0,1,1-4.61-4.6A4.6,4.6,0,0,1,78.1,407.79Z" style="fill:#263238"></path><path d="M73.49,412.9a5.11,5.11,0,1,1,5.11-5.11A5.11,5.11,0,0,1,73.49,412.9Zm0-9.21a4.11,4.11,0,1,0,4.11,4.1A4.11,4.11,0,0,0,73.49,403.69Z" style="fill:#263238"></path><circle cx="87.7" cy="386.67" r="4.99" style="fill:#fff"></circle><path d="M87.7,392.16a5.49,5.49,0,1,1,5.5-5.49A5.49,5.49,0,0,1,87.7,392.16Zm0-10a4.49,4.49,0,1,0,4.5,4.49A4.5,4.5,0,0,0,87.7,382.18Z" style="fill:#263238"></path><circle cx="109.21" cy="405.11" r="3.46" style="fill:#92E3A9"></circle><path d="M109.21,409.06a4,4,0,1,1,4-3.95A4,4,0,0,1,109.21,409.06Zm0-6.91a3,3,0,1,0,3,3A3,3,0,0,0,109.21,402.15Z" style="fill:#263238"></path><circle cx="100.76" cy="422.77" r="3.46" style="fill:#fff"></circle><path d="M100.76,426.73a4,4,0,1,1,4-4A4,4,0,0,1,100.76,426.73Zm0-6.91a3,3,0,1,0,3,2.95A3,3,0,0,0,100.76,419.82Z" style="fill:#263238"></path><path d="M148.77,418.93a4.23,4.23,0,1,1-4.22-4.22A4.22,4.22,0,0,1,148.77,418.93Z" style="fill:#263238"></path><path d="M144.55,423.66a4.73,4.73,0,1,1,4.72-4.73A4.73,4.73,0,0,1,144.55,423.66Zm0-8.45a3.73,3.73,0,1,0,3.72,3.72A3.73,3.73,0,0,0,144.55,415.21Z" style="fill:#263238"></path><circle cx="76.18" cy="365.16" r="3.46" style="fill:#92E3A9"></circle><path d="M76.18,369.12a4,4,0,1,1,4-4A4,4,0,0,1,76.18,369.12Zm0-6.91a3,3,0,1,0,3,3A3,3,0,0,0,76.18,362.21Z" style="fill:#263238"></path><circle cx="51.22" cy="367.47" r="5.76" style="fill:#263238"></circle><path d="M51.22,373.73a6.26,6.26,0,1,1,6.26-6.26A6.27,6.27,0,0,1,51.22,373.73Zm0-11.52a5.26,5.26,0,1,0,5.26,5.26A5.27,5.27,0,0,0,51.22,362.21Z" style="fill:#263238"></path><circle cx="109.21" cy="452.73" r="3.46" style="fill:#92E3A9"></circle><path d="M109.21,456.69a4,4,0,1,1,4-4A4,4,0,0,1,109.21,456.69Zm0-6.91a3,3,0,1,0,3,3A3,3,0,0,0,109.21,449.78Z" style="fill:#263238"></path><path d="M69.65,437a3.84,3.84,0,1,1-3.84-3.84A3.84,3.84,0,0,1,69.65,437Z" style="fill:#263238"></path><path d="M65.81,441.33A4.35,4.35,0,1,1,70.15,437,4.35,4.35,0,0,1,65.81,441.33Zm0-7.69A3.35,3.35,0,1,0,69.15,437,3.35,3.35,0,0,0,65.81,433.64Z" style="fill:#263238"></path><path d="M52.75,291a3.84,3.84,0,1,1-3.84-3.85A3.84,3.84,0,0,1,52.75,291Z" style="fill:#263238"></path><path d="M48.91,295.38A4.35,4.35,0,1,1,53.25,291,4.35,4.35,0,0,1,48.91,295.38Zm0-7.69A3.35,3.35,0,1,0,52.25,291,3.35,3.35,0,0,0,48.91,287.69Z" style="fill:#263238"></path></g></svg>
